<?xml version="1.0" encoding="iso-8859-1"?>
<!-- Generator: Adobe Illustrator 26.0.1, SVG Export Plug-In . SVG Version: 6.00 Build 0)  -->
<svg version="1.1" xmlns="http://www.w3.org/2000/svg" xmlns:xlink="http://www.w3.org/1999/xlink" x="0px" y="0px"
	 viewBox="0 0 400 400" style="enable-background:new 0 0 400 400;" xml:space="preserve">
<g id="Grid_20_x__x_20_pix" style="display:none;">
	<g style="display:inline;">
		
			<line style="opacity:0.44;fill:none;stroke:#000000;stroke-width:0.25;stroke-miterlimit:10;" x1="1.572" y1="5.827" x2="398.423" y2="5.827"/>
		
			<line style="opacity:0.44;fill:none;stroke:#000000;stroke-width:0.25;stroke-miterlimit:10;" x1="1.572" y1="25.67" x2="398.423" y2="25.67"/>
		
			<line style="opacity:0.44;fill:none;stroke:#000000;stroke-width:0.25;stroke-miterlimit:10;" x1="1.572" y1="45.511" x2="398.423" y2="45.511"/>
		
			<line style="opacity:0.44;fill:none;stroke:#000000;stroke-width:0.25;stroke-miterlimit:10;" x1="1.572" y1="65.354" x2="398.423" y2="65.354"/>
		
			<line style="opacity:0.44;fill:none;stroke:#000000;stroke-width:0.25;stroke-miterlimit:10;" x1="1.572" y1="85.196" x2="398.423" y2="85.196"/>
		
			<line style="opacity:0.44;fill:none;stroke:#000000;stroke-width:0.25;stroke-miterlimit:10;" x1="1.572" y1="105.039" x2="398.423" y2="105.039"/>
		
			<line style="opacity:0.44;fill:none;stroke:#000000;stroke-width:0.25;stroke-miterlimit:10;" x1="1.572" y1="124.881" x2="398.423" y2="124.881"/>
		
			<line style="opacity:0.44;fill:none;stroke:#000000;stroke-width:0.25;stroke-miterlimit:10;" x1="1.572" y1="144.723" x2="398.423" y2="144.723"/>
		
			<line style="opacity:0.44;fill:none;stroke:#000000;stroke-width:0.25;stroke-miterlimit:10;" x1="1.572" y1="164.568" x2="398.423" y2="164.568"/>
		
			<line style="opacity:0.44;fill:none;stroke:#000000;stroke-width:0.25;stroke-miterlimit:10;" x1="1.572" y1="184.411" x2="398.423" y2="184.411"/>
		
			<line style="opacity:0.44;fill:none;stroke:#000000;stroke-width:0.25;stroke-miterlimit:10;" x1="1.572" y1="204.253" x2="398.423" y2="204.253"/>
		
			<line style="opacity:0.44;fill:none;stroke:#000000;stroke-width:0.25;stroke-miterlimit:10;" x1="1.572" y1="224.095" x2="398.423" y2="224.095"/>
		
			<line style="opacity:0.44;fill:none;stroke:#000000;stroke-width:0.25;stroke-miterlimit:10;" x1="1.572" y1="243.937" x2="398.423" y2="243.937"/>
		
			<line style="opacity:0.44;fill:none;stroke:#000000;stroke-width:0.25;stroke-miterlimit:10;" x1="1.572" y1="263.781" x2="398.423" y2="263.781"/>
		
			<line style="opacity:0.44;fill:none;stroke:#000000;stroke-width:0.25;stroke-miterlimit:10;" x1="1.572" y1="283.623" x2="398.423" y2="283.623"/>
		
			<line style="opacity:0.44;fill:none;stroke:#000000;stroke-width:0.25;stroke-miterlimit:10;" x1="1.572" y1="303.465" x2="398.423" y2="303.465"/>
		
			<line style="opacity:0.44;fill:none;stroke:#000000;stroke-width:0.25;stroke-miterlimit:10;" x1="1.572" y1="323.307" x2="398.423" y2="323.307"/>
		
			<line style="opacity:0.44;fill:none;stroke:#000000;stroke-width:0.25;stroke-miterlimit:10;" x1="1.572" y1="343.149" x2="398.423" y2="343.149"/>
		
			<line style="opacity:0.44;fill:none;stroke:#000000;stroke-width:0.25;stroke-miterlimit:10;" x1="1.572" y1="362.991" x2="398.423" y2="362.991"/>
		
			<line style="opacity:0.44;fill:none;stroke:#000000;stroke-width:0.25;stroke-miterlimit:10;" x1="1.572" y1="382.835" x2="398.423" y2="382.835"/>
		
			<line style="opacity:0.44;fill:none;stroke:#000000;stroke-width:0.25;stroke-miterlimit:10;" x1="1.572" y1="402.676" x2="398.423" y2="402.676"/>
	</g>
	<g style="display:inline;">
		
			<line style="opacity:0.44;fill:none;stroke:#000000;stroke-width:0.25;stroke-miterlimit:10;" x1="1.572" y1="5.827" x2="1.572" y2="402.676"/>
		
			<line style="opacity:0.44;fill:none;stroke:#000000;stroke-width:0.25;stroke-miterlimit:10;" x1="21.415" y1="5.827" x2="21.415" y2="402.676"/>
		
			<line style="opacity:0.44;fill:none;stroke:#000000;stroke-width:0.25;stroke-miterlimit:10;" x1="41.258" y1="5.827" x2="41.258" y2="402.676"/>
		
			<line style="opacity:0.44;fill:none;stroke:#000000;stroke-width:0.25;stroke-miterlimit:10;" x1="61.1" y1="5.827" x2="61.1" y2="402.676"/>
		
			<line style="opacity:0.44;fill:none;stroke:#000000;stroke-width:0.25;stroke-miterlimit:10;" x1="80.943" y1="5.827" x2="80.943" y2="402.676"/>
		
			<line style="opacity:0.44;fill:none;stroke:#000000;stroke-width:0.25;stroke-miterlimit:10;" x1="100.785" y1="5.827" x2="100.785" y2="402.676"/>
		
			<line style="opacity:0.44;fill:none;stroke:#000000;stroke-width:0.25;stroke-miterlimit:10;" x1="120.627" y1="5.827" x2="120.627" y2="402.676"/>
		
			<line style="opacity:0.44;fill:none;stroke:#000000;stroke-width:0.25;stroke-miterlimit:10;" x1="140.47" y1="5.827" x2="140.47" y2="402.676"/>
		
			<line style="opacity:0.44;fill:none;stroke:#000000;stroke-width:0.25;stroke-miterlimit:10;" x1="160.312" y1="5.827" x2="160.312" y2="402.676"/>
		
			<line style="opacity:0.44;fill:none;stroke:#000000;stroke-width:0.25;stroke-miterlimit:10;" x1="180.155" y1="5.827" x2="180.155" y2="402.676"/>
		
			<line style="opacity:0.44;fill:none;stroke:#000000;stroke-width:0.25;stroke-miterlimit:10;" x1="199.998" y1="5.827" x2="199.998" y2="402.676"/>
		
			<line style="opacity:0.44;fill:none;stroke:#000000;stroke-width:0.25;stroke-miterlimit:10;" x1="219.839" y1="5.827" x2="219.839" y2="402.676"/>
		
			<line style="opacity:0.44;fill:none;stroke:#000000;stroke-width:0.25;stroke-miterlimit:10;" x1="239.683" y1="5.827" x2="239.683" y2="402.676"/>
		
			<line style="opacity:0.44;fill:none;stroke:#000000;stroke-width:0.25;stroke-miterlimit:10;" x1="259.525" y1="5.827" x2="259.525" y2="402.676"/>
		
			<line style="opacity:0.44;fill:none;stroke:#000000;stroke-width:0.25;stroke-miterlimit:10;" x1="279.368" y1="5.827" x2="279.368" y2="402.676"/>
		
			<line style="opacity:0.44;fill:none;stroke:#000000;stroke-width:0.25;stroke-miterlimit:10;" x1="299.21" y1="5.827" x2="299.21" y2="402.676"/>
		
			<line style="opacity:0.44;fill:none;stroke:#000000;stroke-width:0.25;stroke-miterlimit:10;" x1="319.052" y1="5.827" x2="319.052" y2="402.676"/>
		
			<line style="opacity:0.44;fill:none;stroke:#000000;stroke-width:0.25;stroke-miterlimit:10;" x1="338.895" y1="5.827" x2="338.895" y2="402.676"/>
		
			<line style="opacity:0.44;fill:none;stroke:#000000;stroke-width:0.25;stroke-miterlimit:10;" x1="358.738" y1="5.827" x2="358.738" y2="402.676"/>
		
			<line style="opacity:0.44;fill:none;stroke:#000000;stroke-width:0.25;stroke-miterlimit:10;" x1="378.58" y1="5.827" x2="378.58" y2="402.676"/>
		
			<line style="opacity:0.44;fill:none;stroke:#000000;stroke-width:0.25;stroke-miterlimit:10;" x1="398.423" y1="5.827" x2="398.423" y2="402.676"/>
	</g>
	<g style="display:inline;">
		<path style="fill:#E30613;" d="M482.462-78.212v564.929H-82.467V-78.212H482.462 M483.462-79.212H-83.467v566.929h566.929V-79.212
			L483.462-79.212z"/>
	</g>
</g>
<g id="Lag_3">
	<circle style="fill:#FFFFFF;stroke:#000000;stroke-miterlimit:10;" cx="199.998" cy="201.251" r="198.425"/>
</g>
<g id="grafik">
	<text transform="matrix(1 0 0 1 -47.6284 -188.9008)" style="display:none;"><tspan x="0" y="0" style="display:inline; font-family:'AtB-Regular'; font-size:12px;">01.03.01</tspan><tspan x="0" y="28.8" style="display:inline; font-family:'AtB-Regular'; font-size:12px;">Transportform 3</tspan><tspan x="0" y="43.2" style="display:inline; font-family:'AtB-Regular'; font-size:12px;">Tog</tspan><tspan x="0" y="57.6" style="display:inline; font-family:'AtB-Regular'; font-size:12px;">Udf&#xF8;rt 14/12 2012</tspan><tspan x="0" y="72" style="display:inline; font-family:'AtB-Regular'; font-size:12px;">S&#xF8;ren Moesg&#xE5;rd</tspan></text>
	
		<text transform="matrix(1 0 0 1 -47.6284 510.1284)" style="display:none;fill:#E30613; font-family:'AtB-Regular'; font-size:12px;">Frizone</text>
	<g>
		<g>
			<rect x="-83.467" y="-82.212" style="fill:none;" width="566.929" height="566.929"/>
		</g>
		<g>
			<path d="M200.003,2.827C90.628,2.827,1.572,91.854,1.572,201.244c0,109.444,89.056,198.433,198.431,198.433
				c109.382,0,198.419-88.988,198.419-198.433C398.422,91.854,309.385,2.827,200.003,2.827z M200.003,386.915
				c-102.367,0-185.659-83.285-185.659-185.671c0-102.41,83.292-185.674,185.659-185.674c102.385,0,185.656,83.264,185.656,185.674
				C385.659,303.629,302.388,386.915,200.003,386.915z"/>
			<path d="M314.563,161.567c-2.844,0-10.081,0.012-12.54,0.012c0-3.558-0.02-28.557-0.02-30.725c0-1.99-0.647-3.193-2.101-3.193
				c-2.295-0.031-21.61-0.031-23.469,0c-1.191,0-2.108,0.909-2.108,2.071c0,4.883,0.033,22.753,0.033,31.847
				c-0.869,0-15.893-0.015-34.676-0.029v-13.589c0-17.616-8.903-20.325-18.836-20.325h-2.014c-9.692,0-18.836,2.973-18.836,20.325
				v13.567c-19.769-0.005-36.145,0.002-37.722,0.039c0-8.943-0.077-20.273,0.018-29.278c0.017-2.195-1.211-4.629-3.47-4.629
				c-5.613-0.03-56.298-0.002-71.115,0c-0.221-0.012-0.442-0.023-0.682-0.023H85.07c-4.954,0-5.715,2.503-5.715,5.295v0.567
				c0,2.436,0.677,4.743,4.306,5.206c0,0.002,0,0.004,0,0.006c11.827,1.629,38.376,3.813,39.93,3.813
				c0.071,10.547,0.071,24.574,0.079,38.884c-2.829,0-33.576,0-41.153,0c-0.483,0-0.893,0.099-1.184,0.391
				c-0.298,0.298-0.391,0.639-0.391,1.247c0,6.828,0,46.147,0,51.224c0.105,2.124,2.571,3.173,4.396,3.06
				c12.422,0,197.112,0.077,230.367-0.021c1.961,0,3.372-1.137,3.372-4.114c0-4.143-0.032-58.165-0.032-66.87
				C319.045,162.728,317.482,161.567,314.563,161.567z"/>
			<path d="M94.346,246.467c-0.253,1.564-0.392,3.166-0.392,4.802c0,16.438,13.326,29.764,29.765,29.764
				c16.438,0,29.764-13.326,29.764-29.764c0-1.636-0.138-3.238-0.392-4.802H94.346z"/>
			<path d="M171.197,246.467c-0.253,1.564-0.391,3.166-0.391,4.802c0,16.438,13.325,29.764,29.764,29.764
				c16.438,0,29.764-13.326,29.764-29.764c0-1.636-0.139-3.238-0.392-4.802H171.197z"/>
			<path d="M248.048,246.467c-0.254,1.564-0.392,3.166-0.392,4.802c0,16.438,13.325,29.764,29.765,29.764
				c16.439,0,29.764-13.326,29.764-29.764c0-1.636-0.138-3.238-0.392-4.802H248.048z"/>
		</g>
	</g>
</g>
</svg>
