<?xml version="1.0" encoding="iso-8859-1"?>
<!-- Generator: Adobe Illustrator 26.0.1, SVG Export Plug-In . SVG Version: 6.00 Build 0)  -->
<svg version="1.1" xmlns="http://www.w3.org/2000/svg" xmlns:xlink="http://www.w3.org/1999/xlink" x="0px" y="0px"
	 viewBox="0 0 400 400" style="enable-background:new 0 0 400 400;" xml:space="preserve">
<g id="Lag_3">
	<defs>
		<filter id="Adobe_OpacityMaskFilter" filterUnits="userSpaceOnUse" x="1.072" y="5.327" width="397.85" height="397.85">
			<feColorMatrix  type="matrix" values="1 0 0 0 0  0 1 0 0 0  0 0 1 0 0  0 0 0 1 0"/>
		</filter>
	</defs>
	<mask maskUnits="userSpaceOnUse" x="1.072" y="5.327" width="397.85" height="397.85" id="SVGID_1_">
		<g style="filter:url(#Adobe_OpacityMaskFilter);">
		</g>
	</mask>
	<circle style="mask:url(#SVGID_1_);fill:#FFED00;stroke:#FFFFFF;stroke-miterlimit:10;" cx="199.997" cy="204.251" r="198.425"/>
	<circle style="fill:#FFFFFF;stroke:#FFFFFF;stroke-miterlimit:10;" cx="199.998" cy="204.251" r="198.425"/>
</g>
<g id="Grid_20_x__x_20_pix" style="display:none;">
	<g style="display:inline;">
		
			<line style="opacity:0.44;fill:none;stroke:#000000;stroke-width:0.25;stroke-miterlimit:10;" x1="1.572" y1="5.827" x2="398.423" y2="5.827"/>
		
			<line style="opacity:0.44;fill:none;stroke:#000000;stroke-width:0.25;stroke-miterlimit:10;" x1="1.572" y1="25.67" x2="398.423" y2="25.67"/>
		
			<line style="opacity:0.44;fill:none;stroke:#000000;stroke-width:0.25;stroke-miterlimit:10;" x1="1.572" y1="45.511" x2="398.423" y2="45.511"/>
		
			<line style="opacity:0.44;fill:none;stroke:#000000;stroke-width:0.25;stroke-miterlimit:10;" x1="1.572" y1="65.354" x2="398.423" y2="65.354"/>
		
			<line style="opacity:0.44;fill:none;stroke:#000000;stroke-width:0.25;stroke-miterlimit:10;" x1="1.572" y1="85.196" x2="398.423" y2="85.196"/>
		
			<line style="opacity:0.44;fill:none;stroke:#000000;stroke-width:0.25;stroke-miterlimit:10;" x1="1.572" y1="105.039" x2="398.423" y2="105.039"/>
		
			<line style="opacity:0.44;fill:none;stroke:#000000;stroke-width:0.25;stroke-miterlimit:10;" x1="1.572" y1="124.881" x2="398.423" y2="124.881"/>
		
			<line style="opacity:0.44;fill:none;stroke:#000000;stroke-width:0.25;stroke-miterlimit:10;" x1="1.572" y1="144.723" x2="398.423" y2="144.723"/>
		
			<line style="opacity:0.44;fill:none;stroke:#000000;stroke-width:0.25;stroke-miterlimit:10;" x1="1.572" y1="164.568" x2="398.423" y2="164.568"/>
		
			<line style="opacity:0.44;fill:none;stroke:#000000;stroke-width:0.25;stroke-miterlimit:10;" x1="1.572" y1="184.411" x2="398.423" y2="184.411"/>
		
			<line style="opacity:0.44;fill:none;stroke:#000000;stroke-width:0.25;stroke-miterlimit:10;" x1="1.572" y1="204.253" x2="398.423" y2="204.253"/>
		
			<line style="opacity:0.44;fill:none;stroke:#000000;stroke-width:0.25;stroke-miterlimit:10;" x1="1.572" y1="224.095" x2="398.423" y2="224.095"/>
		
			<line style="opacity:0.44;fill:none;stroke:#000000;stroke-width:0.25;stroke-miterlimit:10;" x1="1.572" y1="243.937" x2="398.423" y2="243.937"/>
		
			<line style="opacity:0.44;fill:none;stroke:#000000;stroke-width:0.25;stroke-miterlimit:10;" x1="1.572" y1="263.781" x2="398.423" y2="263.781"/>
		
			<line style="opacity:0.44;fill:none;stroke:#000000;stroke-width:0.25;stroke-miterlimit:10;" x1="1.572" y1="283.623" x2="398.423" y2="283.623"/>
		
			<line style="opacity:0.44;fill:none;stroke:#000000;stroke-width:0.25;stroke-miterlimit:10;" x1="1.572" y1="303.465" x2="398.423" y2="303.465"/>
		
			<line style="opacity:0.44;fill:none;stroke:#000000;stroke-width:0.25;stroke-miterlimit:10;" x1="1.572" y1="323.307" x2="398.423" y2="323.307"/>
		
			<line style="opacity:0.44;fill:none;stroke:#000000;stroke-width:0.25;stroke-miterlimit:10;" x1="1.572" y1="343.149" x2="398.423" y2="343.149"/>
		
			<line style="opacity:0.44;fill:none;stroke:#000000;stroke-width:0.25;stroke-miterlimit:10;" x1="1.572" y1="362.991" x2="398.423" y2="362.991"/>
		
			<line style="opacity:0.44;fill:none;stroke:#000000;stroke-width:0.25;stroke-miterlimit:10;" x1="1.572" y1="382.835" x2="398.423" y2="382.835"/>
		
			<line style="opacity:0.44;fill:none;stroke:#000000;stroke-width:0.25;stroke-miterlimit:10;" x1="1.572" y1="402.676" x2="398.423" y2="402.676"/>
	</g>
	<g style="display:inline;">
		
			<line style="opacity:0.44;fill:none;stroke:#000000;stroke-width:0.25;stroke-miterlimit:10;" x1="1.572" y1="5.827" x2="1.572" y2="402.676"/>
		
			<line style="opacity:0.44;fill:none;stroke:#000000;stroke-width:0.25;stroke-miterlimit:10;" x1="21.415" y1="5.827" x2="21.415" y2="402.676"/>
		
			<line style="opacity:0.44;fill:none;stroke:#000000;stroke-width:0.25;stroke-miterlimit:10;" x1="41.258" y1="5.827" x2="41.258" y2="402.676"/>
		
			<line style="opacity:0.44;fill:none;stroke:#000000;stroke-width:0.25;stroke-miterlimit:10;" x1="61.1" y1="5.827" x2="61.1" y2="402.676"/>
		
			<line style="opacity:0.44;fill:none;stroke:#000000;stroke-width:0.25;stroke-miterlimit:10;" x1="80.943" y1="5.827" x2="80.943" y2="402.676"/>
		
			<line style="opacity:0.44;fill:none;stroke:#000000;stroke-width:0.25;stroke-miterlimit:10;" x1="100.785" y1="5.827" x2="100.785" y2="402.676"/>
		
			<line style="opacity:0.44;fill:none;stroke:#000000;stroke-width:0.25;stroke-miterlimit:10;" x1="120.627" y1="5.827" x2="120.627" y2="402.676"/>
		
			<line style="opacity:0.44;fill:none;stroke:#000000;stroke-width:0.25;stroke-miterlimit:10;" x1="140.47" y1="5.827" x2="140.47" y2="402.676"/>
		
			<line style="opacity:0.44;fill:none;stroke:#000000;stroke-width:0.25;stroke-miterlimit:10;" x1="160.312" y1="5.827" x2="160.312" y2="402.676"/>
		
			<line style="opacity:0.44;fill:none;stroke:#000000;stroke-width:0.25;stroke-miterlimit:10;" x1="180.155" y1="5.827" x2="180.155" y2="402.676"/>
		
			<line style="opacity:0.44;fill:none;stroke:#000000;stroke-width:0.25;stroke-miterlimit:10;" x1="199.998" y1="5.827" x2="199.998" y2="402.676"/>
		
			<line style="opacity:0.44;fill:none;stroke:#000000;stroke-width:0.25;stroke-miterlimit:10;" x1="219.839" y1="5.827" x2="219.839" y2="402.676"/>
		
			<line style="opacity:0.44;fill:none;stroke:#000000;stroke-width:0.25;stroke-miterlimit:10;" x1="239.683" y1="5.827" x2="239.683" y2="402.676"/>
		
			<line style="opacity:0.44;fill:none;stroke:#000000;stroke-width:0.25;stroke-miterlimit:10;" x1="259.525" y1="5.827" x2="259.525" y2="402.676"/>
		
			<line style="opacity:0.44;fill:none;stroke:#000000;stroke-width:0.25;stroke-miterlimit:10;" x1="279.368" y1="5.827" x2="279.368" y2="402.676"/>
		
			<line style="opacity:0.44;fill:none;stroke:#000000;stroke-width:0.25;stroke-miterlimit:10;" x1="299.21" y1="5.827" x2="299.21" y2="402.676"/>
		
			<line style="opacity:0.44;fill:none;stroke:#000000;stroke-width:0.25;stroke-miterlimit:10;" x1="319.052" y1="5.827" x2="319.052" y2="402.676"/>
		
			<line style="opacity:0.44;fill:none;stroke:#000000;stroke-width:0.25;stroke-miterlimit:10;" x1="338.895" y1="5.827" x2="338.895" y2="402.676"/>
		
			<line style="opacity:0.44;fill:none;stroke:#000000;stroke-width:0.25;stroke-miterlimit:10;" x1="358.738" y1="5.827" x2="358.738" y2="402.676"/>
		
			<line style="opacity:0.44;fill:none;stroke:#000000;stroke-width:0.25;stroke-miterlimit:10;" x1="378.58" y1="5.827" x2="378.58" y2="402.676"/>
		
			<line style="opacity:0.44;fill:none;stroke:#000000;stroke-width:0.25;stroke-miterlimit:10;" x1="398.423" y1="5.827" x2="398.423" y2="402.676"/>
	</g>
	<g style="display:inline;">
		<path style="fill:#E30613;" d="M482.462-78.212v564.929H-82.467V-78.212H482.462 M483.462-79.212H-83.467v566.929h566.929V-79.212
			L483.462-79.212z"/>
	</g>
</g>
<g id="grafik">
	<text transform="matrix(1 0 0 1 -47.6284 -185.9008)"><tspan x="0" y="0" style="font-family:'AtB-Regular'; font-size:12px;">01.01.01</tspan><tspan x="0" y="28.8" style="font-family:'AtB-Regular'; font-size:12px;">Transportform 1</tspan><tspan x="0" y="43.2" style="font-family:'AtB-Regular'; font-size:12px;">Bus</tspan><tspan x="0" y="57.6" style="font-family:'AtB-Regular'; font-size:12px;">Udf&#xF8;rt 14/12 2012</tspan><tspan x="0" y="72" style="font-family:'AtB-Regular'; font-size:12px;">S&#xF8;ren Moesg&#xE5;rd</tspan></text>
	<text transform="matrix(1 0 0 1 -47.6284 513.1284)" style="fill:#E30613; font-family:'AtB-Regular'; font-size:12px;">Frizone</text>
	<g>
		<g>
			<rect x="-83.467" y="-79.212" style="fill:none;" width="566.929" height="566.929"/>
		</g>
		<g>
			<path d="M200.003,5.827C90.629,5.827,1.572,94.854,1.572,204.245c0,109.444,89.057,198.433,198.431,198.433
				c109.382,0,198.419-88.988,198.419-198.433C398.422,94.854,309.385,5.827,200.003,5.827z M200.003,389.916
				c-102.367,0-185.659-83.287-185.659-185.671c0-102.411,83.292-185.675,185.659-185.675c102.384,0,185.656,83.264,185.656,185.675
				C385.659,306.628,302.387,389.916,200.003,389.916z"/>
			<path d="M334.704,146.774c-0.822-0.583-1.68-0.783-2.482-0.783H64.101c-1.202,0-2.462,0.454-3.438,1.752
				c-0.584,0.817-0.819,1.68-0.819,2.49v97.931c0.021,1.211,0.46,2.439,1.776,3.438c0.801,0.584,1.69,0.801,2.482,0.801
				l33.729-0.018c1.202-0.021,2.422-0.432,3.38-1.703c0.566-0.799,0.78-1.66,0.78-2.441c-0.195-5.049,1.173-10.312,4.434-14.766
				c1.445-2.029,3.261-3.857,5.273-5.312c2.032-1.445,4.259-2.58,6.582-3.32c2.327-0.752,4.727-1.125,7.12-1.125
				c4.686,0,9.559,1.418,13.709,4.445c2.033,1.455,3.799,3.275,5.273,5.291c1.456,2.014,2.571,4.27,3.343,6.566
				c0.721,2.346,1.042,4.727,1.092,7.129c-0.05,1.602,0.068,3.203,1.748,4.471c0.762,0.566,1.621,0.783,2.383,0.783h87.84
				c0.441,0,0.869-0.059,1.279-0.193c0.762-0.256,1.535-0.707,2.08-1.527c0.598-0.791,0.803-1.629,0.803-2.441
				c-0.205-5.049,1.182-10.293,4.412-14.766c1.475-2.029,3.293-3.826,5.281-5.297c2.027-1.461,4.26-2.574,6.604-3.336
				c2.324-0.713,4.709-1.101,7.09-1.101c4.688-0.024,9.562,1.441,13.721,4.438c2.023,1.471,3.818,3.267,5.293,5.297
				c1.467,2.014,2.551,4.248,3.311,6.564c0.762,2.326,1.113,4.727,1.113,7.127c-0.078,1.584,0.059,3.186,1.728,4.453
				c0.772,0.566,1.631,0.783,2.414,0.783h36.305c1.223-0.018,2.463-0.471,3.457-1.76c0.588-0.838,0.803-1.689,0.803-2.479v-97.931
				C336.481,149.018,336.012,147.778,334.704,146.774z M106.817,196.169c0,0.609-0.237,1.25-0.881,1.718
				c-0.409,0.302-0.839,0.412-1.271,0.412h-34.04c-0.412,0-0.86-0.128-1.232-0.412c-0.829-0.662-0.858-1.15-0.878-1.718v-35.124
				c0-0.43,0.139-0.853,0.41-1.244c0.674-0.812,1.173-0.839,1.701-0.881h34.04c0.451,0,0.88,0.139,1.262,0.393
				c0.81,0.685,0.849,1.192,0.89,1.733V196.169z M153.641,196.169c0,0.609-0.245,1.25-0.9,1.718c-0.39,0.314-0.839,0.412-1.24,0.412
				h-34.062c-0.408,0-0.858-0.128-1.229-0.412c-0.8-0.662-0.839-1.15-0.898-1.718v-35.124c0-0.43,0.137-0.853,0.391-1.244
				c0.684-0.812,1.19-0.839,1.736-0.881h34.062c0.439,0,0.881,0.139,1.24,0.393c0.812,0.685,0.841,1.192,0.9,1.733V196.169z
				 M199.334,196.169c-0.02,0.609-0.245,1.25-0.889,1.718c-0.42,0.302-0.869,0.412-1.261,0.412h-34.08
				c-0.392,0-0.841-0.128-1.211-0.412c-0.832-0.662-0.86-1.15-0.889-1.718v-35.124c0-0.43,0.117-0.853,0.39-1.244
				c0.675-0.812,1.181-0.839,1.71-0.881h34.08c0.411,0,0.868,0.139,1.261,0.393c0.799,0.685,0.841,1.192,0.889,1.733V196.169z
				 M246.131,196.169c0,0.609-0.215,1.25-0.869,1.718c-0.42,0.302-0.861,0.412-1.25,0.412h-34.031c-0.441,0-0.898-0.128-1.262-0.412
				c-0.812-0.662-0.852-1.15-0.9-1.718v-35.124c0-0.43,0.137-0.853,0.412-1.244c0.682-0.812,1.182-0.839,1.75-0.881h34.031
				c0.418,0,0.887,0.139,1.25,0.393c0.807,0.685,0.846,1.192,0.869,1.733V196.169z M292.944,196.169c0,0.609-0.193,1.25-0.857,1.718
				c-0.428,0.302-0.828,0.412-1.25,0.412h-34.051c-0.422,0-0.871-0.128-1.24-0.412c-0.84-0.662-0.851-1.15-0.902-1.718v-35.124
				c0-0.43,0.141-0.853,0.414-1.244c0.664-0.812,1.17-0.839,1.729-0.881h34.051c0.43,0,0.879,0.139,1.25,0.393
				c0.82,0.685,0.83,1.192,0.857,1.733V196.169z M327.858,241.736c0,0.605-0.225,1.221-0.887,1.711
				c-0.432,0.303-0.842,0.381-1.232,0.381H303.61c-0.432,0.039-0.859-0.086-1.248-0.352c-0.822-0.684-0.822-1.199-0.871-1.74v-80.69
				c0-0.43,0.129-0.872,0.422-1.244c0.645-0.812,1.131-0.839,1.697-0.881h22.129c0.41,0,0.857,0.139,1.232,0.393
				c0.818,0.685,0.836,1.192,0.887,1.733V241.736z"/>
			<path d="M278.786,233.474c-1.424-1.037-3.025-1.848-4.746-2.424c-1.631-0.496-3.359-0.769-5.115-0.769
				c-3.527,0-7.014,1.121-9.883,3.193c-1.457,1.035-2.764,2.346-3.791,3.818c-1.053,1.434-1.852,3.041-2.422,4.736
				c-0.508,1.66-0.781,3.379-0.781,5.137c-0.021,3.516,1.135,7.012,3.174,9.844c1.035,1.465,2.363,2.793,3.82,3.816
				c1.443,1.047,3.047,1.857,4.723,2.398c3.342,1.066,6.955,1.066,10.307,0c1.69-0.541,3.272-1.352,4.736-2.398
				c1.443-1.023,2.762-2.352,3.797-3.816c1.047-1.424,1.865-3.006,2.412-4.729c0.508-1.639,0.781-3.336,0.781-5.115
				c0-3.516-1.131-7.033-3.193-9.873C281.569,235.835,280.25,234.509,278.786,233.474z"/>
			<path d="M135.33,233.474c-1.443-1.037-3.056-1.848-4.766-2.424c-1.64-0.496-3.366-0.769-5.127-0.769
				c-3.523,0-7.021,1.121-9.873,3.193c-1.424,1.035-2.751,2.346-3.787,3.787c-1.054,1.465-1.856,3.072-2.421,4.74
				c-0.527,1.688-0.781,3.406-0.781,5.164c0,3.494,1.112,7.012,3.203,9.844c1.036,1.465,2.363,2.793,3.787,3.816
				c1.446,1.047,3.046,1.857,4.728,2.398c3.341,1.066,6.934,1.066,10.272,0c1.681-0.541,3.323-1.352,4.766-2.398
				c1.427-1.023,2.754-2.352,3.81-3.816c1.035-1.424,1.835-3.006,2.391-4.729c0.518-1.639,0.773-3.367,0.773-5.115
				c0.019-3.516-1.106-7.033-3.173-9.873C138.084,235.82,136.756,234.509,135.33,233.474z"/>
		</g>
	</g>
</g>
</svg>
