<?xml version="1.0" encoding="utf-8"?>
<!-- Generator: Adobe Illustrator 24.2.0, SVG Export Plug-In . SVG Version: 6.00 Build 0)  -->
<svg version="1.1" xmlns="http://www.w3.org/2000/svg" xmlns:xlink="http://www.w3.org/1999/xlink" x="0px" y="0px"
	 viewBox="0 0 395.99 396" style="enable-background:new 0 0 395.99 396;" xml:space="preserve">
<style type="text/css">
	.st0{display:none;}
	.st1{display:inline;}
	.st2{opacity:0.44;fill:none;stroke:#000000;stroke-width:0.25;stroke-miterlimit:10;}
	.st3{fill:#E30613;}
	.st4{fill:#FFFFFF;}
</style>
<g id="Grid_20_x__x_20_pix" class="st0">
	<g class="st1">
		<line class="st2" x1="-3.48" y1="-0.43" x2="393.37" y2="-0.43"/>
		<line class="st2" x1="-3.48" y1="19.41" x2="393.37" y2="19.41"/>
		<line class="st2" x1="-3.48" y1="39.26" x2="393.37" y2="39.26"/>
		<line class="st2" x1="-3.48" y1="59.1" x2="393.37" y2="59.1"/>
		<line class="st2" x1="-3.48" y1="78.94" x2="393.37" y2="78.94"/>
		<line class="st2" x1="-3.48" y1="98.78" x2="393.37" y2="98.78"/>
		<line class="st2" x1="-3.48" y1="118.63" x2="393.37" y2="118.63"/>
		<line class="st2" x1="-3.48" y1="138.47" x2="393.37" y2="138.47"/>
		<line class="st2" x1="-3.48" y1="158.31" x2="393.37" y2="158.31"/>
		<line class="st2" x1="-3.48" y1="178.15" x2="393.37" y2="178.15"/>
		<line class="st2" x1="-3.48" y1="198" x2="393.37" y2="198"/>
		<line class="st2" x1="-3.48" y1="217.84" x2="393.37" y2="217.84"/>
		<line class="st2" x1="-3.48" y1="237.68" x2="393.37" y2="237.68"/>
		<line class="st2" x1="-3.48" y1="257.52" x2="393.37" y2="257.52"/>
		<line class="st2" x1="-3.48" y1="277.37" x2="393.37" y2="277.37"/>
		<line class="st2" x1="-3.48" y1="297.21" x2="393.37" y2="297.21"/>
		<line class="st2" x1="-3.48" y1="317.05" x2="393.37" y2="317.05"/>
		<line class="st2" x1="-3.48" y1="336.89" x2="393.37" y2="336.89"/>
		<line class="st2" x1="-3.48" y1="356.73" x2="393.37" y2="356.73"/>
		<line class="st2" x1="-3.48" y1="376.58" x2="393.37" y2="376.58"/>
		<line class="st2" x1="-3.48" y1="396.42" x2="393.37" y2="396.42"/>
	</g>
	<g class="st1">
		<line class="st2" x1="-3.48" y1="-0.43" x2="-3.48" y2="396.42"/>
		<line class="st2" x1="16.36" y1="-0.43" x2="16.36" y2="396.42"/>
		<line class="st2" x1="36.2" y1="-0.43" x2="36.2" y2="396.42"/>
		<line class="st2" x1="56.05" y1="-0.43" x2="56.05" y2="396.42"/>
		<line class="st2" x1="75.89" y1="-0.43" x2="75.89" y2="396.42"/>
		<line class="st2" x1="95.73" y1="-0.43" x2="95.73" y2="396.42"/>
		<line class="st2" x1="115.57" y1="-0.43" x2="115.57" y2="396.42"/>
		<line class="st2" x1="135.42" y1="-0.43" x2="135.42" y2="396.42"/>
		<line class="st2" x1="155.26" y1="-0.43" x2="155.26" y2="396.42"/>
		<line class="st2" x1="175.1" y1="-0.43" x2="175.1" y2="396.42"/>
		<line class="st2" x1="194.94" y1="-0.43" x2="194.94" y2="396.42"/>
		<line class="st2" x1="214.78" y1="-0.43" x2="214.78" y2="396.42"/>
		<line class="st2" x1="234.63" y1="-0.43" x2="234.63" y2="396.42"/>
		<line class="st2" x1="254.47" y1="-0.43" x2="254.47" y2="396.42"/>
		<line class="st2" x1="274.31" y1="-0.43" x2="274.31" y2="396.42"/>
		<line class="st2" x1="294.16" y1="-0.43" x2="294.16" y2="396.42"/>
		<line class="st2" x1="314" y1="-0.43" x2="314" y2="396.42"/>
		<line class="st2" x1="333.84" y1="-0.43" x2="333.84" y2="396.42"/>
		<line class="st2" x1="353.68" y1="-0.43" x2="353.68" y2="396.42"/>
		<line class="st2" x1="373.52" y1="-0.43" x2="373.52" y2="396.42"/>
		<line class="st2" x1="393.37" y1="-0.43" x2="393.37" y2="396.42"/>
	</g>
	<g class="st1">
		<path class="st3" d="M476.87-84.47v564.93H-88.06V-84.47H476.87 M477.87-85.47H-89.06v566.93h566.93V-85.47L477.87-85.47z"/>
	</g>
</g>
<g id="grafik">
	<text transform="matrix(1 0 0 1 -52.6833 -192.1566)" class="st0"><tspan x="0" y="0" class="st1" style="font-family:'AtBDigital-Regular'; font-size:12px;">02.26.01</tspan><tspan x="0" y="28.8" class="st1" style="font-family:'AtBDigital-Regular'; font-size:12px;">Flextrafik transportformmærke</tspan><tspan x="0" y="43.2" class="st1" style="font-family:'AtBDigital-Regular'; font-size:12px;">15/12 2016</tspan><tspan x="0" y="57.6" class="st1" style="font-family:'AtBDigital-Regular'; font-size:12px;">Movia (red. FUHR)</tspan></text>
	
		<text transform="matrix(1 0 0 1 -52.6833 506.8727)" style="display:none;fill:#E30613; font-family:'AtBDigital-Regular'; font-size:12px;">Frizone</text>
	<g id="Bus" class="st0">
	</g>
	<g>
	</g>
	<g id="Lag_4" class="st0">
	</g>
	<circle class="st4" cx="198" cy="198" r="191.49"/>
	<g>
		<path d="M198,383.26c-102.15,0-185.26-83.11-185.26-185.27C12.74,95.8,95.86,12.72,198,12.72c102.16,0,185.25,83.08,185.25,185.27
			C383.26,300.15,300.17,383.26,198,383.26L198,383.26z M198,0C88.86,0,0,88.84,0,197.99C0,307.2,88.86,396,198,396
			c109.14,0,197.99-88.8,197.99-198C395.99,88.84,307.15,0,198,0L198,0z"/>
		<path d="M276.44,179.1c-0.36,0.41-1.56,0.43-1.97,0.43h-57.78c-0.46,0-1-0.17-1.4-0.42c-0.84-0.72-0.87-1.28-0.92-1.85V145
			c0-0.44,0.12-0.88,0.43-1.34c0.74-0.85,1.24-0.87,1.89-0.91h27.81c1.79,0.01,2.77,1.25,3.48,2.03l28.65,32.26
			C277.12,177.77,276.85,178.58,276.44,179.1L276.44,179.1z M202.06,177.26c-0.02,0.67-0.22,1.29-0.92,1.85
			c-0.44,0.27-0.91,0.42-1.39,0.42h-36.42c-0.41,0-0.9-0.17-1.29-0.42c-0.9-0.72-0.95-1.28-0.97-1.85V145
			c0-0.44,0.13-0.88,0.41-1.34c0.73-0.85,1.27-0.87,1.85-0.91h36.42c0.5,0,0.97,0.12,1.39,0.41c0.83,0.74,0.87,1.26,0.92,1.83
			V177.26L202.06,177.26z M148.92,177.26c0,0.67-0.26,1.29-0.98,1.85c-0.41,0.28-0.9,0.42-1.33,0.42h-36.44
			c-0.42,0-0.93-0.17-1.33-0.42c-0.83-0.72-0.87-1.28-0.92-1.85V145c0-0.44,0.11-0.88,0.41-1.34c0.7-0.85,1.25-0.87,1.83-0.91h36.44
			c0.49,0,0.96,0.12,1.33,0.41c0.88,0.74,0.93,1.26,0.98,1.83V177.26L148.92,177.26z M328.91,195.51
			c-2.54-2.76-17.96-9.31-20.3-10.68c-0.76-0.52-8-4.13-12.06-5.94c-0.58-0.18-8.96-3.5-10.75-5.03
			c-3.64-3.18-32.64-34.35-34.36-36.33c-2.29-2.52-5.11-2.3-5.11-2.3l-6.45-0.02l-142.93,0.02c-1.26,0-2.61,0.51-3.64,1.89
			c-0.66,0.85-0.76,1.63-0.9,2.68c0,0-0.02,52.3,0,76.11L81.82,196.1c-1.32-2.46-2.11-4.36-3.22-6.65
			c-0.85-1.65-1.34-3.85-1.39-6.64v-40.9c0-0.49-0.2-1.03-0.76-1.45c-0.36-0.23-0.73-0.34-1.04-0.34h-8.88
			c-0.48,0-1.03,0.19-1.44,0.75c-0.28,0.36-0.36,0.73-0.36,1.04l0.05,43.22c-0.05,6.71,2.08,8.7,8.89,21.67l0.08,0.17
			c4.59,8.59,11.79,21.96,15.71,29.32l1.97,3.72c0.23,0.44,0.67,0.82,1.36,1.11c0.41,0.14,1.55,0.53,1.65,0.56l11.78,4.13
			c0.8-0.01,1.97-0.01,2.75,0c-0.77-2.65-1.18-5.41-1.18-8.34c0-16.53,13.43-29.91,29.97-29.91c16.53,0,29.94,13.38,29.94,29.91
			c0,2.95-0.42,5.74-1.2,8.42h92.66c-0.78-2.68-1.2-5.47-1.2-8.42c0-16.53,13.38-29.91,29.98-29.91c16.5,0,29.88,13.38,29.88,29.91
			c0,1.97-0.15,3.92-0.52,5.79c3.83-0.85,15.21-2.27,15.88-3.1c2.03-1.53,2.07-12.6,2.07-17.79
			C335.27,217.76,333.56,200.75,328.91,195.51L328.91,195.51z"/>
		<path d="M288.48,215.13c-12.31,0-22.36,10.01-22.36,22.39c0,12.39,10.05,22.46,22.36,22.46c12.39,0,22.46-10.07,22.46-22.46
			C310.94,225.14,300.87,215.13,288.48,215.13L288.48,215.13z"/>
		<path d="M138.52,215.13c-12.39,0-22.45,10.01-22.45,22.39c0,12.39,10.06,22.46,22.45,22.46c12.37,0,22.42-10.07,22.42-22.46
			C160.95,225.14,150.89,215.13,138.52,215.13L138.52,215.13z"/>
	</g>
</g>
</svg>
