<?xml version="1.0" encoding="utf-8"?>
<!-- Generator: Adobe Illustrator 24.2.0, SVG Export Plug-In . SVG Version: 6.00 Build 0)  -->
<svg version="1.1" xmlns="http://www.w3.org/2000/svg" xmlns:xlink="http://www.w3.org/1999/xlink" x="0px" y="0px"
	 viewBox="0 0 595.28 841.89" style="enable-background:new 0 0 595.28 841.89;" xml:space="preserve">
<style type="text/css">
	.st0{display:none;}
	.st1{display:inline;}
	.st2{opacity:0.44;fill:none;stroke:#000000;stroke-width:0.25;stroke-miterlimit:10;}
	.st3{fill:#E30613;}
	.st4{font-family:'AtBDigital-Regular';}
	.st5{font-size:12px;}
	.st6{display:none;fill:#E30613;}
	.st7{fill:#FFFFFF;}
</style>
<g id="Grid_20_x__x_20_pix" class="st0">
	<g class="st1">
		<line class="st2" x1="99.21" y1="226.77" x2="496.06" y2="226.77"/>
		<line class="st2" x1="99.21" y1="246.61" x2="496.06" y2="246.61"/>
		<line class="st2" x1="99.21" y1="266.46" x2="496.06" y2="266.46"/>
		<line class="st2" x1="99.21" y1="286.3" x2="496.06" y2="286.3"/>
		<line class="st2" x1="99.21" y1="306.14" x2="496.06" y2="306.14"/>
		<line class="st2" x1="99.21" y1="325.98" x2="496.06" y2="325.98"/>
		<line class="st2" x1="99.21" y1="345.83" x2="496.06" y2="345.83"/>
		<line class="st2" x1="99.21" y1="365.67" x2="496.06" y2="365.67"/>
		<line class="st2" x1="99.21" y1="385.51" x2="496.06" y2="385.51"/>
		<line class="st2" x1="99.21" y1="405.36" x2="496.06" y2="405.36"/>
		<line class="st2" x1="99.21" y1="425.2" x2="496.06" y2="425.2"/>
		<line class="st2" x1="99.21" y1="445.04" x2="496.06" y2="445.04"/>
		<line class="st2" x1="99.21" y1="464.88" x2="496.06" y2="464.88"/>
		<line class="st2" x1="99.21" y1="484.73" x2="496.06" y2="484.73"/>
		<line class="st2" x1="99.21" y1="504.57" x2="496.06" y2="504.57"/>
		<line class="st2" x1="99.21" y1="524.41" x2="496.06" y2="524.41"/>
		<line class="st2" x1="99.21" y1="544.25" x2="496.06" y2="544.25"/>
		<line class="st2" x1="99.21" y1="564.09" x2="496.06" y2="564.09"/>
		<line class="st2" x1="99.21" y1="583.94" x2="496.06" y2="583.94"/>
		<line class="st2" x1="99.21" y1="603.78" x2="496.06" y2="603.78"/>
		<line class="st2" x1="99.21" y1="623.62" x2="496.06" y2="623.62"/>
	</g>
	<g class="st1">
		<line class="st2" x1="99.21" y1="226.77" x2="99.21" y2="623.62"/>
		<line class="st2" x1="119.06" y1="226.77" x2="119.06" y2="623.62"/>
		<line class="st2" x1="138.9" y1="226.77" x2="138.9" y2="623.62"/>
		<line class="st2" x1="158.74" y1="226.77" x2="158.74" y2="623.62"/>
		<line class="st2" x1="178.58" y1="226.77" x2="178.58" y2="623.62"/>
		<line class="st2" x1="198.42" y1="226.77" x2="198.42" y2="623.62"/>
		<line class="st2" x1="218.27" y1="226.77" x2="218.27" y2="623.62"/>
		<line class="st2" x1="238.11" y1="226.77" x2="238.11" y2="623.62"/>
		<line class="st2" x1="257.95" y1="226.77" x2="257.95" y2="623.62"/>
		<line class="st2" x1="277.79" y1="226.77" x2="277.79" y2="623.62"/>
		<line class="st2" x1="297.64" y1="226.77" x2="297.64" y2="623.62"/>
		<line class="st2" x1="317.48" y1="226.77" x2="317.48" y2="623.62"/>
		<line class="st2" x1="337.32" y1="226.77" x2="337.32" y2="623.62"/>
		<line class="st2" x1="357.17" y1="226.77" x2="357.17" y2="623.62"/>
		<line class="st2" x1="377.01" y1="226.77" x2="377.01" y2="623.62"/>
		<line class="st2" x1="396.85" y1="226.77" x2="396.85" y2="623.62"/>
		<line class="st2" x1="416.69" y1="226.77" x2="416.69" y2="623.62"/>
		<line class="st2" x1="436.54" y1="226.77" x2="436.54" y2="623.62"/>
		<line class="st2" x1="456.38" y1="226.77" x2="456.38" y2="623.62"/>
		<line class="st2" x1="476.22" y1="226.77" x2="476.22" y2="623.62"/>
		<line class="st2" x1="496.06" y1="226.77" x2="496.06" y2="623.62"/>
	</g>
	<g class="st1">
		<path class="st3" d="M579.56,142.73v564.93H14.63V142.73H579.56 M580.56,141.73H13.63v566.93h566.93V141.73L580.56,141.73z"/>
	</g>
</g>
<g id="grafik">
	<text transform="matrix(1 0 0 1 50.0117 35.0439)" class="st0"><tspan x="0" y="0" class="st1 st4 st5">02.26.01</tspan><tspan x="0" y="28.8" class="st1 st4 st5">Flextrafik transportformmærke</tspan><tspan x="0" y="43.2" class="st1 st4 st5">15/12 2016</tspan><tspan x="0" y="57.6" class="st1 st4 st5">Movia (red. FUHR)</tspan></text>
	<text transform="matrix(1 0 0 1 50.0117 734.0732)" class="st6 st4 st5">Frizone</text>
	<g id="Bus" class="st0">
	</g>
	<g>
	</g>
	<g id="Lag_4" class="st0">
	</g>
	<circle class="st7" cx="300.69" cy="425.2" r="191.49"/>
	<g>
		<path d="M300.7,610.46c-102.15,0-185.26-83.11-185.26-185.27c0-102.19,83.11-185.27,185.26-185.27
			c102.16,0,185.25,83.08,185.25,185.27C485.95,527.35,402.86,610.46,300.7,610.46L300.7,610.46z M300.7,227.2
			c-109.14,0-198,88.84-198,197.99c0,109.21,88.86,198,198,198c109.14,0,197.99-88.8,197.99-198
			C498.69,316.04,409.84,227.2,300.7,227.2L300.7,227.2z"/>
		<path d="M379.14,406.3c-0.36,0.41-1.56,0.43-1.97,0.43h-57.78c-0.46,0-1-0.17-1.4-0.42c-0.84-0.72-0.87-1.28-0.92-1.85V372.2
			c0-0.44,0.12-0.88,0.43-1.34c0.74-0.85,1.24-0.87,1.89-0.91h27.81c1.79,0.01,2.77,1.25,3.48,2.03l28.65,32.26
			C379.81,404.97,379.54,405.78,379.14,406.3L379.14,406.3z M304.75,404.46c-0.02,0.67-0.22,1.29-0.92,1.85
			c-0.44,0.27-0.91,0.42-1.39,0.42h-36.42c-0.41,0-0.9-0.17-1.29-0.42c-0.9-0.72-0.95-1.28-0.97-1.85V372.2
			c0-0.44,0.13-0.88,0.41-1.34c0.73-0.85,1.27-0.87,1.85-0.91h36.42c0.5,0,0.97,0.12,1.39,0.41c0.83,0.74,0.87,1.26,0.92,1.83
			V404.46L304.75,404.46z M251.61,404.46c0,0.67-0.26,1.29-0.98,1.85c-0.41,0.28-0.9,0.42-1.33,0.42h-36.44
			c-0.42,0-0.93-0.17-1.33-0.42c-0.83-0.72-0.87-1.28-0.92-1.85V372.2c0-0.44,0.11-0.88,0.41-1.34c0.7-0.85,1.25-0.87,1.83-0.91
			h36.44c0.49,0,0.96,0.12,1.33,0.41c0.88,0.74,0.93,1.26,0.98,1.83V404.46L251.61,404.46z M431.6,422.71
			c-2.54-2.76-17.96-9.31-20.3-10.68c-0.76-0.52-8-4.13-12.06-5.94c-0.58-0.18-8.96-3.5-10.75-5.03
			c-3.64-3.18-32.64-34.35-34.36-36.33c-2.29-2.52-5.11-2.3-5.11-2.3l-6.45-0.02l-142.93,0.02c-1.26,0-2.61,0.51-3.64,1.89
			c-0.66,0.85-0.76,1.63-0.89,2.68c0,0-0.02,52.3,0,76.11l-10.61-19.83c-1.32-2.46-2.11-4.36-3.22-6.65
			c-0.85-1.65-1.34-3.85-1.39-6.64v-40.9c0-0.49-0.2-1.03-0.76-1.45c-0.36-0.23-0.73-0.34-1.04-0.34h-8.88
			c-0.48,0-1.03,0.19-1.44,0.75c-0.28,0.36-0.36,0.73-0.36,1.04l0.05,43.22c-0.05,6.71,2.08,8.7,8.89,21.67l0.08,0.17
			c4.59,8.59,11.79,21.96,15.71,29.32l1.97,3.72c0.23,0.44,0.67,0.82,1.36,1.11c0.41,0.14,1.55,0.53,1.65,0.56l11.78,4.13
			c0.8-0.01,1.97-0.01,2.75,0c-0.77-2.65-1.18-5.41-1.18-8.34c0-16.53,13.43-29.91,29.97-29.91c16.53,0,29.94,13.38,29.94,29.91
			c0,2.95-0.42,5.74-1.2,8.42h92.66c-0.78-2.68-1.2-5.47-1.2-8.42c0-16.53,13.38-29.91,29.98-29.91c16.5,0,29.88,13.38,29.88,29.91
			c0,1.97-0.15,3.92-0.52,5.79c3.83-0.85,15.21-2.27,15.88-3.1c2.03-1.53,2.07-12.6,2.07-17.79
			C437.96,444.96,436.25,427.95,431.6,422.71L431.6,422.71z"/>
		<path d="M391.17,442.33c-12.31,0-22.36,10.01-22.36,22.39c0,12.39,10.05,22.46,22.36,22.46c12.39,0,22.46-10.07,22.46-22.46
			C413.64,452.34,403.57,442.33,391.17,442.33L391.17,442.33z"/>
		<path d="M241.22,442.33c-12.39,0-22.45,10.01-22.45,22.39c0,12.39,10.06,22.46,22.45,22.46c12.37,0,22.42-10.07,22.42-22.46
			C263.64,452.34,253.59,442.33,241.22,442.33L241.22,442.33z"/>
	</g>
</g>
</svg>
