<?xml version="1.0" encoding="utf-8"?>
<!-- Generator: Adobe Illustrator 27.5.0, SVG Export Plug-In . SVG Version: 6.00 Build 0)  -->
<svg version="1.1" id="Lag_1" xmlns="http://www.w3.org/2000/svg" xmlns:xlink="http://www.w3.org/1999/xlink" x="0px" y="0px"
	 viewBox="0 0 841.89 595.28" style="enable-background:new 0 0 841.89 595.28;" xml:space="preserve">
<style type="text/css">
	.st0{fill:none;stroke:#30556E;stroke-width:4;stroke-miterlimit:10;}
	.st1{fill:none;stroke:#30556E;stroke-width:4;stroke-linecap:round;stroke-miterlimit:10;}
	.st2{fill:#FFFFFF;stroke:#30556E;stroke-width:4;stroke-miterlimit:10;}
</style>
<g>
	<path class="st0" d="M331.86,341.35l-16-31.61c-4.11-12.31-6.35-25.51-6.35-39.24c0-66.82,52.84-120.98,118.03-120.98
		c25.34,0,48.81,8.18,68.03,22.11l24.05,23.19c16.23,20.72,25.94,47.04,25.94,75.68c0,28.84-9.84,55.32-26.27,76.11L508,359.01
		c-21.08,20.14-49.37,32.47-80.46,32.47c-26.91,0-50.13-8.02-69.98-23.57"/>
	<ellipse class="st0" cx="427.53" cy="270.39" rx="68.03" ry="69.74"/>
	<line class="st1" x1="402.54" y1="154.45" x2="439.34" y2="318.29"/>
	<line class="st1" x1="316.93" y1="236.18" x2="540.65" y2="306.44"/>
	<line class="st1" x1="343.18" y1="353.04" x2="493.4" y2="209.62"/>
	<ellipse class="st0" cx="427.47" cy="270.5" rx="30.77" ry="31.54"/>
	<g>
		<path class="st2" d="M522.99,202.65v-10.06l3.57-1.05c8.03-3.25,13.57-10.21,13.57-18.28c0-11.17-10.63-20.23-23.75-20.23
			c-13.11,0-23.75,9.06-23.75,20.23c0,8.15,5.66,15.17,13.81,18.38l3.17,0.96v10.06"/>
		<path class="st2" d="M539.47,222.34h-46.18c-0.36,0-0.66-0.3-0.66-0.66v-18.8c0-0.13,0.11-0.24,0.24-0.24h47.02
			c0.13,0,0.24,0.11,0.24,0.24v18.8C540.13,222.04,539.83,222.34,539.47,222.34z"/>
	</g>
	<g>
		<path class="st2" d="M412.56,167.99v-10.06l3.57-1.05c8.03-3.25,13.57-10.21,13.57-18.28c0-11.17-10.63-20.23-23.75-20.23
			c-13.11,0-23.75,9.06-23.75,20.23c0,8.15,5.66,15.17,13.81,18.38l3.17,0.96v10.06"/>
		<path class="st2" d="M429.05,187.68h-46.18c-0.36,0-0.66-0.3-0.66-0.66v-18.8c0-0.13,0.11-0.24,0.24-0.24h47.02
			c0.13,0,0.24,0.11,0.24,0.24v18.8C429.7,187.38,429.41,187.68,429.05,187.68z"/>
	</g>
	<g>
		<path class="st2" d="M545.88,317.01v-10.06l3.57-1.05c8.03-3.25,13.57-10.21,13.57-18.28c0-11.17-10.63-20.23-23.75-20.23
			c-13.11,0-23.75,9.06-23.75,20.23c0,8.15,5.66,15.17,13.81,18.38l3.17,0.96v10.06"/>
		<path class="st2" d="M562.37,336.7h-46.18c-0.36,0-0.66-0.3-0.66-0.66v-18.8c0-0.13,0.11-0.24,0.24-0.24h47.02
			c0.13,0,0.24,0.11,0.24,0.24v18.8C563.02,336.4,562.73,336.7,562.37,336.7z"/>
	</g>
	<g>
		<path class="st2" d="M320.08,251.61v-10.06l3.57-1.05c8.03-3.25,13.57-10.21,13.57-18.28c0-11.17-10.63-20.23-23.75-20.23
			s-23.75,9.06-23.75,20.23c0,8.15,5.66,15.17,13.81,18.38l3.17,0.96v10.06"/>
		<path class="st2" d="M336.57,271.3h-46.18c-0.36,0-0.66-0.3-0.66-0.66v-18.8c0-0.13,0.11-0.24,0.24-0.24h47.02
			c0.13,0,0.24,0.11,0.24,0.24v18.8C337.22,271,336.93,271.3,336.57,271.3z"/>
	</g>
	<g>
		<path class="st2" d="M347.33,368.8v-10.06l3.57-1.05c8.03-3.25,13.57-10.21,13.57-18.28c0-11.17-10.63-20.23-23.75-20.23
			s-23.75,9.06-23.75,20.23c0,8.15,5.66,15.17,13.81,18.38l3.17,0.96v10.06"/>
		<path class="st2" d="M363.82,388.49h-46.18c-0.36,0-0.66-0.3-0.66-0.66v-18.8c0-0.13,0.11-0.24,0.24-0.24h47.02
			c0.13,0,0.24,0.11,0.24,0.24v18.8C364.47,388.2,364.18,388.49,363.82,388.49z"/>
	</g>
	<g>
		<path class="st2" d="M468.26,404.19v-10.06l3.57-1.05c8.03-3.25,13.57-10.21,13.57-18.28c0-11.17-10.63-20.23-23.75-20.23
			c-13.11,0-23.75,9.06-23.75,20.23c0,8.15,5.66,15.17,13.81,18.38l3.17,0.96v10.06"/>
		<path class="st2" d="M484.75,423.88h-46.18c-0.36,0-0.66-0.3-0.66-0.66v-18.8c0-0.13,0.11-0.24,0.24-0.24h47.02
			c0.13,0,0.24,0.11,0.24,0.24v18.8C485.41,423.58,485.11,423.88,484.75,423.88z"/>
	</g>
	<rect x="414.04" y="270.69" class="st2" width="27.09" height="192.07"/>
	<ellipse class="st2" cx="427.58" cy="270.69" rx="13.54" ry="13.88"/>
</g>
</svg>
