<?xml version="1.0" encoding="utf-8"?>
<!-- Generator: Adobe Illustrator 24.2.0, SVG Export Plug-In . SVG Version: 6.00 Build 0)  -->
<svg version="1.1" id="Lag_1" xmlns="http://www.w3.org/2000/svg" xmlns:xlink="http://www.w3.org/1999/xlink" x="0px" y="0px"
	 viewBox="0 0 595.28 841.89" style="enable-background:new 0 0 595.28 841.89;" xml:space="preserve">
<style type="text/css">
	.st0{fill:#FFFFFF;stroke:#4A5D70;stroke-width:3;stroke-miterlimit:10;}
	.st1{fill:#4A5D70;}
</style>
<circle class="st0" cx="289.78" cy="258.5" r="54.27"/>
<path class="st1" d="M259.21,268.07c4.09-3.39,13.21-10.96,23.26-14.11c0,0-4.24,2.05-11.27,7.49c-5.46,4.33-9.19,8.28-10.48,9.54
	c-1.51,1.42-7.18,6.54-7.32,7.49c-0.14,0.87,1.36,0.95,1.72,1.34c0.36,0.32,0.86,1.89,1.51,1.34c0.79-0.63,3.95-5.04,4.52-5.2
	c15.72,11.51,35.89,7.17,47.52-13.24c3.88-6.86,7.32-14.82,16.51-18.99C286.56,230.71,261.29,236.94,259.21,268.07z"/>
</svg>
