<?xml version="1.0" encoding="utf-8"?>
<!-- Generator: Adobe Illustrator 24.2.0, SVG Export Plug-In . SVG Version: 6.00 Build 0)  -->
<svg version="1.1" id="Lag_1" xmlns="http://www.w3.org/2000/svg" xmlns:xlink="http://www.w3.org/1999/xlink" x="0px" y="0px"
	 viewBox="0 0 595.28 841.89" style="enable-background:new 0 0 595.28 841.89;" xml:space="preserve">
<style type="text/css">
	.st0{fill:#FFFFFF;stroke:#4A5D70;stroke-width:3;stroke-miterlimit:10;}
	.st1{fill:#4A5D70;}
</style>
<circle class="st0" cx="289.78" cy="258.5" r="54.27"/>
<g>
	<path class="st1" d="M249.8,285.44c0.2-16.31,5.36-25.32,16.19-28.33c0.37-0.1,0.65-0.41,0.72-0.79c0.07-0.38-0.08-0.76-0.39-0.99
		c-3.42-2.53-5.38-6.38-5.38-10.58c0-7.28,5.92-13.2,13.2-13.2c7.27,0,13.19,5.92,13.19,13.2c0,4.19-1.96,8.05-5.39,10.58
		c-0.31,0.23-0.46,0.61-0.39,0.99c0.07,0.38,0.35,0.68,0.72,0.79c1.94,0.54,3.77,1.28,5.52,2.16c-6.85,5.83-8.16,15.8-8.23,26.17
		H249.8z M327.19,285.44c-0.04-5.26-0.42-9.96-1.42-13.99c-0.92,0.32-1.89,0.53-2.91,0.53c-4.92,0-8.92-4-8.92-8.9
		c0-1.82,0.56-3.51,1.49-4.92c-0.9-0.39-1.84-0.75-2.88-1.04l-1.98-0.55l1.65-1.22c3.42-2.53,5.39-6.39,5.39-10.58
		c0-7.28-5.92-13.2-13.19-13.2c-7.28,0-13.2,5.92-13.2,13.2c0,4.2,1.96,8.05,5.38,10.58l1.65,1.22l-1.98,0.55
		c-11.95,3.31-14.61,13.7-14.72,28.33h23.02H327.19z M315.95,263.07c0,3.8,3.1,6.9,6.91,6.9c3.81,0,6.91-3.09,6.91-6.9
		c0-3.81-3.1-6.9-6.91-6.9C319.04,256.16,315.95,259.26,315.95,263.07z"/>
</g>
</svg>
