<?xml version="1.0" encoding="utf-8"?>
<!-- Generator: Adobe Illustrator 24.2.0, SVG Export Plug-In . SVG Version: 6.00 Build 0)  -->
<svg version="1.1" id="Lag_1" xmlns="http://www.w3.org/2000/svg" xmlns:xlink="http://www.w3.org/1999/xlink" x="0px" y="0px"
	 viewBox="0 0 595.28 841.89" style="enable-background:new 0 0 595.28 841.89;" xml:space="preserve">
<style type="text/css">
	.st0{fill:#FFFFFF;stroke:#4A5D70;stroke-width:3;stroke-miterlimit:10;}
	.st1{fill:#4A5D70;}
	.st2{fill:#FFFFFF;}
</style>
<circle class="st0" cx="303.21" cy="424" r="54.27"/>
<path class="st1" d="M271.13,421.04c-7.84,0-14.19,6.36-14.19,14.2c0,11.1,12.41,24.4,12.93,24.97l1.26,1.35l1.26-1.38
	c0.52-0.55,12.93-13.67,12.93-24.94C285.32,427.4,278.97,421.04,271.13,421.04z M271.14,456.38c-3.08-3.61-10.72-13.34-10.72-21.14
	c0.04-5.89,4.82-10.65,10.71-10.66l0.01-0.03c5.9,0.01,10.68,4.79,10.71,10.69C281.85,443.19,274.22,452.83,271.14,456.38z"/>
<path class="st1" d="M281.85,435.24c0,7.95-7.63,17.59-10.71,21.14c-3.08-3.61-10.72-13.34-10.72-21.14
	c0.04-5.89,4.82-10.65,10.71-10.66l0.01-0.03C277.04,424.56,281.82,429.34,281.85,435.24z"/>
<path class="st1" d="M328.09,383.1c-5.66,0-10.25,4.59-10.25,10.25c0,7.74,8.54,16.89,8.9,17.28l1.34,1.42l1.35-1.41
	c0.36-0.38,8.91-9.42,8.91-17.29C338.34,387.69,333.75,383.1,328.09,383.1z M328.08,406.56c-2.59-3.14-6.55-8.86-6.55-13.21
	c0-3.62,2.93-6.54,6.55-6.55c3.61,0.01,6.54,2.94,6.54,6.55C334.62,398.09,330.33,403.85,328.08,406.56z"/>
<path class="st1" d="M334.62,393.35c0,4.74-4.29,10.5-6.54,13.21c-2.59-3.14-6.55-8.86-6.55-13.21c0-3.62,2.93-6.54,6.55-6.55
	C331.69,386.81,334.62,389.74,334.62,393.35z"/>
<circle class="st2" cx="271.14" cy="435.62" r="2.67"/>
<path class="st1" d="M280.19,462.9l-0.64-3.55c2.33-0.43,4.58-0.9,6.68-1.32l0.76,3.54C284.85,462.02,282.56,462.48,280.19,462.9z
	 M291.23,460.57l-0.83-3.5c2.33-0.57,4.52-1.17,6.53-1.81l1.03,3.5C295.89,459.38,293.62,460,291.23,460.57z M302.15,457.38
	l-1.23-3.4c2.08-0.74,4.12-1.62,6.09-2.62l1.67,3.21C306.57,455.64,304.39,456.58,302.15,457.38z M312.57,452.18l-2.13-2.92
	c1.65-1.11,3-2.62,3.9-4.39l3.3,1.49c-1.16,2.35-2.92,4.36-5.09,5.82H312.57z M314.94,441.53c-0.19-2.03-0.8-4-1.81-5.77l3.21-1.66
	c1.26,2.22,2.03,4.69,2.25,7.23L314.94,441.53z M310.97,432.17l-0.9-1.46c-0.99-1.56-1.94-3.03-2.71-4.52l3.19-1.7
	c0.72,1.36,1.63,2.78,2.59,4.27l0.9,1.49L310.97,432.17z M305.59,421.69c-0.11-0.55-0.16-1.11-0.16-1.66
	c0.02-2.45,1.25-4.73,3.28-6.1l2.18,2.88c-1.12,0.69-1.8,1.91-1.81,3.22c0,0.33,0.04,0.66,0.1,0.99L305.59,421.69z M314.23,415.04
	l-1.31-3.37c2.25-0.83,4.56-1.48,6.91-1.93l0.72,3.54C318.4,413.7,316.29,414.28,314.23,415.04z"/>
</svg>
