<?xml version="1.0" encoding="UTF-8"?>
<svg id="Lag_1" data-name="Lag 1" xmlns="http://www.w3.org/2000/svg" viewBox="0 0 304.77 304.77">
  <defs>
    <style>
      .cls-1 {
        fill: #fff;
        stroke: #305aa6;
        stroke-miterlimit: 10;
        stroke-width: 28px;
      }

      .cls-2 {
        fill: #1d1d1b;
      }
    </style>
  </defs>
  <circle class="cls-1" cx="152.38" cy="152.38" r="138.38"/>
  <g>
    <circle class="cls-2" cx="152.11" cy="151.77" r="20.13"/>
    <path class="cls-2" d="m88.83,171.98l26.3-.51s.57-22.84,3.06-29.11c2.83-7.12,13.51-17.24,19.91-21.45,4.05-2.66,16.01-6.56,20.68-7.66h74.04s13.28-11.74,13.28-11.74l-13.02-12s-57.05-2.59-75.83,0c-6.31.87-17.92,2.27-23.74,4.85-4.63,2.05-13.97,7.5-17.87,10.72-4.39,3.62-12.92,10.68-15.83,15.57-2.63,4.43-9.04,17.65-9.96,22.72-1.26,6.98-1.02,28.6-1.02,28.6Z"/>
    <path class="cls-2" d="m216.92,131.6l-26.29.7s-.41,22.84-2.85,29.13c-2.78,7.14-13.39,17.34-19.76,21.59-4.03,2.69-15.96,6.68-20.63,7.81l-74.04.53-13.19,11.84,13.11,11.91s57.07,2.18,75.83-.55c6.3-.92,17.91-2.4,23.71-5.02,4.61-2.08,13.92-7.6,17.79-10.85,4.37-3.66,12.85-10.77,15.72-15.69,2.6-4.45,8.92-17.71,9.79-22.79,1.21-6.98.81-28.6.81-28.6Z"/>
  </g>
</svg>