<?xml version="1.0" encoding="utf-8"?>
<!-- Generator: Adobe Illustrator 25.2.3, SVG Export Plug-In . SVG Version: 6.00 Build 0)  -->
<svg version="1.1" id="Lag_1" xmlns="http://www.w3.org/2000/svg" xmlns:xlink="http://www.w3.org/1999/xlink" x="0px" y="0px"
	 viewBox="0 0 192 195" style="enable-background:new 0 0 192 195;" xml:space="preserve">
<style type="text/css">
	.st0{fill:#006FB7;}
	.st1{fill:#FFFFFF;}
</style>
<g transform="matrix( 0.5472412109375, 0, 0, 0.5472412109375, 586,195.55) ">
	<g transform="matrix( 1, 0, 0, 1, 268.45,-320.45) ">
		<g>
			<g id="knudepunktsskilt_0_Layer0_0_FILL">
				<path class="st0" d="M-1004.4-7.9c0-6.7-3.3-10-10-10h-299c-6.7,0-10,3.3-10,10v299c0,6.7,3.3,10,10,10h299c6.7,0,10-3.3,10-10
					V-7.9z"/>
			</g>
		</g>
	</g>
	<g transform="matrix( 1, 0, 0, 1, 302.95,-286) ">
		<g>
			<g id="knudepunktsskilt_0_Layer0_1_FILL">
				<path class="st1" d="M-1073.4-7.9c0-6.7-3.3-10-10-10h-230c-6.7,0-10,3.3-10,10v230c0,6.7,3.3,10,10,10h230c6.7,0,10-3.3,10-10
					V-7.9z"/>
			</g>
		</g>
	</g>
	<g transform="matrix( 1, 0, 0, 1, 268.45,-320.45) ">
		<g>
			<g id="knudepunktsskilt_0_Layer0_2_FILL">
				<path d="M-1148.5,159.6c4.7-4.7,7-10.3,7-17s-2.3-12.3-7-17c-4.7-4.7-10.3-7-17-7s-12.3,2.3-17,7c-4.7,4.7-7,10.4-7,17
					s2.3,12.3,7,17c4.7,4.7,10.4,7,17,7C-1158.8,166.7-1153.1,164.3-1148.5,159.6z"/>
			</g>
		</g>
	</g>
	<g transform="matrix( 1, 0, 0, 1, 268.45,-320.45) ">
		<g>
			<g id="knudepunktsskilt_0_Layer0_3_FILL">
				<path d="M-1073.4,96.5l14.5-14.5l-14.5-14.5h-75.7c-1.4-0.1-2.8-0.1-4.2-0.1c-23.5,0-43.6,8.3-60.2,24.9
					c-16.6,16.6-24.9,36.7-24.9,60.2c0,4.9,0.4,9.6,1.1,14.2h29.6c-1.1-4.5-1.7-9.2-1.7-14.2c0-15.5,5.5-28.7,16.4-39.7l0-0.1
					c10.9-10.9,24.1-16.4,39.6-16.4c1.1,0,2.2,0,3.3,0.1c0.2,0,0.5,0,0.7,0H-1073.4z"/>
			</g>
		</g>
	</g>
	<g transform="matrix( 1, 0, 0, 1, 268.45,-320.45) ">
		<g>
			<g id="knudepunktsskilt_0_Layer0_4_FILL">
				<path d="M-1180.3,188.6c-0.2,0-0.5,0-0.7,0h-75.9l-14.5,14.5l14.5,14.5h75.7c1.4,0.1,2.8,0.1,4.2,0.1c23.5,0,43.5-8.3,60.1-24.9
					c16.6-16.6,24.9-36.7,24.9-60.2c0-4.9-0.4-9.6-1.1-14.2h-29.6c1.1,4.5,1.7,9.2,1.7,14.2c0,15.5-5.5,28.7-16.4,39.7l0,0
					c-10.9,10.9-24.1,16.4-39.6,16.4C-1178.1,188.7-1179.2,188.6-1180.3,188.6z"/>
			</g>
		</g>
	</g>
</g>
</svg>
