<?xml version="1.0" encoding="iso-8859-1"?>
<!-- Generator: Adobe Illustrator 26.0.1, SVG Export Plug-In . SVG Version: 6.00 Build 0)  -->
<svg version="1.1" xmlns="http://www.w3.org/2000/svg" xmlns:xlink="http://www.w3.org/1999/xlink" x="0px" y="0px"
	 viewBox="0 0 178.583 178.583" style="enable-background:new 0 0 178.583 178.583;" xml:space="preserve">
<g id="Lag_2">
	<ellipse style="fill:#FFFFFF;stroke:#000000;stroke-miterlimit:10;" cx="89.174" cy="89.679" rx="85.186" ry="86.695"/>
</g>
<g id="Lag_1">
	<g>
		<g>
			<g>
				<path style="fill:#E30613;" d="M214.178-36.173v250.004H-35.836V-36.173H214.178 M214.24-36.235H-35.899v250.129H214.24V-36.235
					L214.24-36.235z"/>
			</g>
			<g>
				<path style="fill:#42433C;" d="M89.174,1.284c-48.258,0-87.553,39.277-87.553,87.545c0,48.283,39.295,87.545,87.553,87.545
					c48.262,0,87.547-39.262,87.547-87.545C176.721,40.562,137.435,1.284,89.174,1.284z M89.174,170.747
					c-45.168,0-81.916-36.746-81.916-81.918c0-45.189,36.748-81.926,81.916-81.926c45.172,0,81.916,36.736,81.916,81.926
					C171.09,134.001,134.346,170.747,89.174,170.747z"/>
			</g>
		</g>
		<path style="fill:#42433C;" d="M33.32,57.007v58.908h114.535c3.439,0,5.465-2.703,4.5-6.002L138.65,63.009
			c-0.965-3.301-4.568-6.002-8.008-6.002H33.32z"/>
		<g>
			<path style="fill:#42433C;" d="M93.406,46.349l-11.393-9.902c-0.652-0.564-0.721-1.557-0.156-2.207l1.133-1.301
				c0.564-0.65,1.557-0.721,2.207-0.156l14.438,12.541c0.65,0.564,0.65,1.486,0,2.051l-14.438,12.54
				c-0.65,0.564-1.643,0.496-2.207-0.156l-1.133-1.301c-0.565-0.65-0.496-1.641,0.156-2.205L93.406,46.349z"/>
		</g>
		<path style="fill:#FFFFFF;" d="M52.09,99.071c0,0.406,0.33,0.736,0.736,0.736h23.512c0.408,0,0.74-0.33,0.74-0.736V71.497
			c0-0.406-0.332-0.738-0.74-0.738H52.826c-0.406,0-0.736,0.332-0.736,0.738V99.071z"/>
		<path style="fill:#FFFFFF;" d="M20.828,99.071c0,0.406,0.332,0.736,0.738,0.736h23.512c0.406,0,0.738-0.33,0.738-0.736V71.497
			c0-0.406-0.332-0.738-0.738-0.738H21.566c-0.406,0-0.738,0.332-0.738,0.738V99.071z"/>
		<path style="fill:#FFFFFF;" d="M112.021,108.841V71.497c0-0.406-0.33-0.738-0.736-0.738H83.164c-0.408,0-0.74,0.332-0.74,0.738
			v37.344H112.021z"/>
		
			<line style="fill:none;stroke:#42433C;stroke-width:2.8678;stroke-miterlimit:10;" x1="97.226" y1="67.966" x2="97.226" y2="115.915"/>
		<g>
			<path style="fill:#FFFFFF;" d="M118.336,99.808c-0.55,0-1.001-0.45-1.001-1V71.683c0-0.55,0.45-1.001,1.001-1.001h13.581
				c0.55,0,1.114,0.436,1.252,0.968l7.05,27.188c0.138,0.533-0.199,0.968-0.749,0.968h-21.134V99.808z"/>
		</g>
		<rect x="81.435" y="53.144" style="fill:#FFFFFF;" width="11.523" height="3.863"/>
		<path style="fill:#42433C;" d="M33.32,121.942h117.017c0.629,0,1.143,0.514,1.143,1.146v2.547c0,0.625-0.514,1.141-1.143,1.141
			H33.32V121.942z"/>
	</g>
</g>
</svg>
