<?xml version="1.0" encoding="utf-8"?>
<!-- Generator: Adobe Illustrator 26.0.1, SVG Export Plug-In . SVG Version: 6.00 Build 0)  -->
<svg version="1.1" id="Lag_1" xmlns="http://www.w3.org/2000/svg" xmlns:xlink="http://www.w3.org/1999/xlink" x="0px" y="0px"
	 viewBox="0 0 400 400" style="enable-background:new 0 0 400 400;" xml:space="preserve">
<style type="text/css">
	.st0{fill:#FFFFFF;stroke:#000000;stroke-miterlimit:10;}
	.st1{fill:#E30613;}
	.st2{fill:#42433C;}
	.st3{fill:#FFFFFF;}
	.st4{fill:none;stroke:#42433C;stroke-width:2.8678;stroke-miterlimit:10;}
</style>
<g id="Lag_2_00000162313646335153744480000010583745175332153006_">
	<ellipse class="st0" cx="200" cy="202.4" rx="194.3" ry="197.8"/>
</g>
<g id="Lag_1_00000176763569472342146360000003113056856903503795_">
	<g>
		<g>
			<g>
				<path class="st1" d="M485.1-84.7v570.3H-85.1V-84.7H485.1 M485.3-84.9H-85.3v570.6h570.6V-84.9L485.3-84.9z"/>
			</g>
			<g>
				<path class="st2" d="M200,0.7C89.9,0.7,0.3,90.3,0.3,200.4c0,110.1,89.6,199.7,199.7,199.7c110.1,0,199.7-89.6,199.7-199.7
					C399.7,90.3,310.1,0.7,200,0.7z M200,387.3c-103,0-186.9-83.8-186.9-186.9C13.2,97.3,97,13.5,200,13.5
					c103,0,186.9,83.8,186.9,186.9C386.9,303.5,303,387.3,200,387.3z"/>
			</g>
		</g>
		<path class="st2" d="M72.6,127.8v134.4h261.3c7.8,0,12.5-6.2,10.3-13.7l-31.3-107c-2.2-7.5-10.4-13.7-18.3-13.7H72.6z"/>
		<g>
			<path class="st2" d="M209.7,103.5l-26-22.6c-1.5-1.3-1.6-3.6-0.4-5l2.6-3c1.3-1.5,3.6-1.6,5-0.4l32.9,28.6c1.5,1.3,1.5,3.4,0,4.7
				l-32.9,28.6c-1.5,1.3-3.7,1.1-5-0.4l-2.6-3c-1.3-1.5-1.1-3.7,0.4-5L209.7,103.5z"/>
		</g>
		<path class="st3" d="M115.4,223.8c0,0.9,0.8,1.7,1.7,1.7h53.6c0.9,0,1.7-0.8,1.7-1.7v-62.9c0-0.9-0.8-1.7-1.7-1.7h-53.6
			c-0.9,0-1.7,0.8-1.7,1.7V223.8z"/>
		<path class="st3" d="M44.1,223.8c0,0.9,0.8,1.7,1.7,1.7h53.6c0.9,0,1.7-0.8,1.7-1.7v-62.9c0-0.9-0.8-1.7-1.7-1.7H45.8
			c-0.9,0-1.7,0.8-1.7,1.7V223.8z"/>
		<path class="st3" d="M252.1,246.1v-85.2c0-0.9-0.8-1.7-1.7-1.7h-64.1c-0.9,0-1.7,0.8-1.7,1.7v85.2H252.1z"/>
		<line class="st4" x1="218.4" y1="152.8" x2="218.4" y2="262.2"/>
		<g>
			<path class="st3" d="M266.5,225.5c-1.3,0-2.3-1-2.3-2.3v-61.9c0-1.3,1-2.3,2.3-2.3h31c1.3,0,2.5,1,2.9,2.2l16.1,62
				c0.3,1.2-0.5,2.2-1.7,2.2L266.5,225.5L266.5,225.5z"/>
		</g>
		<rect x="182.4" y="119" class="st3" width="26.3" height="8.8"/>
		<path class="st2" d="M72.6,276h266.9c1.4,0,2.6,1.2,2.6,2.6v5.8c0,1.4-1.2,2.6-2.6,2.6H72.6V276z"/>
	</g>
</g>
</svg>
