<?xml version="1.0" encoding="utf-8"?>
<!-- Generator: Adobe Illustrator 27.5.0, SVG Export Plug-In . SVG Version: 6.00 Build 0)  -->
<svg version="1.1" id="Lag_1" xmlns="http://www.w3.org/2000/svg" xmlns:xlink="http://www.w3.org/1999/xlink" x="0px" y="0px"
	 viewBox="0 0 763.9 217.4" style="enable-background:new 0 0 763.9 217.4;" xml:space="preserve">
<style type="text/css">
	.st0{fill:#FFFFFF;stroke:#000000;stroke-miterlimit:10;}
	.st1{display:none;}
	.st2{fill:none;stroke:#2D5670;stroke-width:3;stroke-linejoin:round;stroke-miterlimit:10;}
	.st3{fill:#FFFFFF;stroke:#2D5670;stroke-width:3;stroke-linejoin:round;stroke-miterlimit:10;}
</style>
<rect class="st0" width="763.9" height="217.4"/>
<g id="Lag_1_00000085229486180300608700000005360405262651634611_" class="st1">
	
		<image style="display:inline;overflow:visible;enable-background:new    ;" width="1776" height="645" xlink:href="27B94F23.png"  transform="matrix(0.4721 0 0 0.4721 -544.6083 -208.9009)">
	</image>
</g>
<g id="Lag_2_00000066498887913341630030000009274378499685676703_">
	<g>
		<polyline class="st2" points="34.2,165.1 34.1,171.9 0,169.7 0,118.6 34.7,86.2 34.3,155 		"/>
		<line class="st2" x1="34.3" y1="158.1" x2="34.2" y2="162.1"/>
		<polyline class="st2" points="38.5,155.1 38.9,90.4 64.2,65.9 		"/>
		<line class="st2" x1="38.4" y1="162.2" x2="38.4" y2="158.4"/>
		<polyline class="st2" points="38.4,165.2 38.3,171.6 62.8,173.2 62.8,173.9 101,175.6 105.2,175.2 		"/>
		<polyline class="st2" points="34.7,86.2 41,86.6 41,88.4 		"/>
		<polygon class="st2" points="30.2,154.8 64.1,156.1 64.1,159.2 30.5,158 		"/>
		<polygon class="st2" points="30.1,161.9 30.1,164.8 64,166.6 64,163.5 		"/>
		<line class="st2" x1="62.8" y1="166.5" x2="62.8" y2="173.2"/>
		<line class="st2" x1="62.9" y1="159.2" x2="62.8" y2="163.5"/>
		<polyline class="st2" points="102.7,20.5 63.5,58.1 62.9,156 		"/>
		<line class="st2" x1="38.7" y1="122.8" x2="63.1" y2="122.9"/>
		<line class="st2" x1="38.6" y1="123.2" x2="63.1" y2="123.3"/>
		<line class="st2" x1="38.6" y1="132.7" x2="63" y2="132.7"/>
		<line class="st2" x1="47.1" y1="165.7" x2="47" y2="171.4"/>
		<line class="st2" x1="47.1" y1="158.6" x2="47.1" y2="162.7"/>
		<line class="st2" x1="47.2" y1="132.8" x2="47.1" y2="155.4"/>
		<line class="st2" x1="49.7" y1="165.8" x2="49.7" y2="171.8"/>
		<line class="st2" x1="49.7" y1="158.7" x2="49.7" y2="162.9"/>
		<line class="st2" x1="49.8" y1="132.8" x2="49.7" y2="155.5"/>
		<line class="st2" x1="57" y1="166.2" x2="57" y2="172.2"/>
		<line class="st2" x1="57" y1="159" x2="57" y2="163.2"/>
		<line class="st2" x1="56.9" y1="132.7" x2="57" y2="155.8"/>
		<line class="st2" x1="59.5" y1="166.3" x2="59.5" y2="172.2"/>
		<line class="st2" x1="59.5" y1="159" x2="59.5" y2="163.2"/>
		<line class="st2" x1="59.2" y1="132.7" x2="59.4" y2="155.9"/>
		<polyline class="st2" points="39.3,165.2 39.3,171 62.7,172.4 		"/>
		<line class="st2" x1="39.4" y1="158.3" x2="39.3" y2="162.4"/>
		<line class="st2" x1="39.5" y1="132.6" x2="39.4" y2="155.1"/>
		<polyline class="st2" points="101.1,168.7 101,175.6 60.3,173.3 		"/>
		<line class="st2" x1="101.2" y1="161" x2="101.1" y2="165.7"/>
		<line class="st2" x1="105.1" y1="157.7" x2="105.6" y2="63.1"/>
		<line class="st2" x1="105.1" y1="165.9" x2="105.1" y2="161.1"/>
		<polyline class="st2" points="105.1,168.8 105.2,175.2 135.1,176.8 135.1,177.5 248.9,184.3 255.4,182.8 255.1,128 255.9,127.4 
			255.3,126.8 143.1,74 135.6,73.6 135.3,159 		"/>
		<polygon class="st2" points="97.1,157.4 136.8,159.1 136.8,162.3 97.4,160.8 		"/>
		<polygon class="st2" points="97.4,165.6 97.4,168.5 136.8,170.3 136.8,167.2 		"/>
		<line class="st2" x1="135.2" y1="170.2" x2="135.1" y2="176.8"/>
		<line class="st2" x1="135.3" y1="162.4" x2="135.2" y2="167.1"/>
		<line class="st2" x1="105.5" y1="123.3" x2="135.6" y2="123.4"/>
		<line class="st2" x1="105.4" y1="123.7" x2="135.6" y2="123.8"/>
		<line class="st2" x1="105.3" y1="134.6" x2="135.4" y2="134.6"/>
		<line class="st2" x1="116.5" y1="169.3" x2="116.4" y2="175"/>
		<line class="st2" x1="116.5" y1="161.6" x2="116.5" y2="166.3"/>
		<line class="st2" x1="119.6" y1="169.4" x2="119.6" y2="175.4"/>
		<line class="st2" x1="119.6" y1="161.7" x2="119.6" y2="166.5"/>
		<line class="st2" x1="119.7" y1="134.8" x2="119.6" y2="158.2"/>
		<line class="st2" x1="128.2" y1="169.8" x2="128.3" y2="175.8"/>
		<line class="st2" x1="128.2" y1="161.9" x2="128.2" y2="166.8"/>
		<line class="st2" x1="128.1" y1="134.8" x2="128.2" y2="158.8"/>
		<line class="st2" x1="131.2" y1="169.9" x2="131.3" y2="175.8"/>
		<line class="st2" x1="131.2" y1="162.1" x2="131.2" y2="166.9"/>
		<line class="st2" x1="130.9" y1="134.8" x2="131.1" y2="158.8"/>
		<polyline class="st2" points="107.2,168.9 107.2,174.6 135.1,176 		"/>
		<line class="st2" x1="107.2" y1="161.3" x2="107.2" y2="166"/>
		<line class="st2" x1="107.4" y1="134.7" x2="107.3" y2="157.6"/>
		<line class="st2" x1="116.5" y1="134.9" x2="116.4" y2="158.2"/>
		<line class="st2" x1="119.6" y1="82.9" x2="119.6" y2="123.3"/>
		<line class="st2" x1="128.1" y1="87.5" x2="128.2" y2="123.5"/>
		<line class="st2" x1="130.9" y1="88.9" x2="131.1" y2="123.4"/>
		<line class="st2" x1="107.3" y1="76.3" x2="107.2" y2="123.1"/>
		<line class="st2" x1="116.5" y1="81.3" x2="116.4" y2="123.1"/>
		<line class="st2" x1="49.8" y1="92.1" x2="49.7" y2="122.9"/>
		<line class="st2" x1="56.8" y1="85.6" x2="56.9" y2="123.1"/>
		<line class="st2" x1="59.2" y1="83.3" x2="59.4" y2="123.1"/>
		<line class="st2" x1="39.5" y1="102.1" x2="39.4" y2="122.8"/>
		<line class="st2" x1="47.1" y1="94.7" x2="47.1" y2="122.8"/>
		<line class="st2" x1="63.3" y1="79.1" x2="38.7" y2="102.8"/>
		<line class="st2" x1="105.6" y1="75.5" x2="135.5" y2="91.2"/>
		<polyline class="st2" points="135.9,76.3 107,62.8 105.6,63.1 135.8,77.4 		"/>
		<polyline class="st2" points="109.8,63.7 110.2,21.7 102.7,20.5 101.2,157.4 		"/>
		<line class="st2" x1="34.1" y1="171.9" x2="38.3" y2="171.6"/>
		<polyline class="st2" points="135.4,74.2 248.5,127.8 248.9,184.3 		"/>
		<line class="st2" x1="248.5" y1="127.8" x2="255.1" y2="128"/>
		<line class="st2" x1="109.8" y1="32" x2="363.9" y2="71.9"/>
		<polyline class="st2" points="109.8,62 297.2,82.4 307,73.4 321.4,73.8 		"/>
		<polyline class="st2" points="111.9,64.6 298.2,84.7 310.2,74.4 728.2,54.7 		"/>
		<polyline class="st2" points="255.4,130.6 367.9,130.4 419.2,130.4 		"/>
		<line class="st2" x1="298.2" y1="84.7" x2="369.2" y2="129"/>
		<polyline class="st2" points="255.1,138.9 367.8,135.5 419.5,136.3 		"/>
		<line class="st2" x1="124" y1="46.6" x2="123.8" y2="63.3"/>
		<line class="st2" x1="139.2" y1="48.7" x2="138.9" y2="65.2"/>
		<polyline class="st3" points="152.1,50.5 152,66.7 153.3,67.8 154.8,67.8 155.7,67 155.9,50.8 		"/>
		<line class="st2" x1="168.1" y1="52.7" x2="168" y2="68.3"/>
		<line class="st2" x1="180.4" y1="54.3" x2="180.4" y2="69.7"/>
		<polyline class="st3" points="191.8,55.9 191.6,71.4 192.7,72.3 194,72.3 194.8,71.6 195,56.3 		"/>
		<line class="st2" x1="205.3" y1="57.7" x2="205.2" y2="72.5"/>
		<line class="st2" x1="216.3" y1="59.3" x2="216.3" y2="73.7"/>
		<polyline class="st3" points="226.4,60.6 226.2,75.2 227.2,76 228.4,76 229.1,75.4 229.2,60.9 		"/>
		<line class="st2" x1="238.2" y1="62.3" x2="238" y2="76.1"/>
		<line class="st2" x1="247.8" y1="63.5" x2="247.8" y2="77.2"/>
		<polyline class="st3" points="256.8,64.8 256.6,78.5 257.5,79.2 258.5,79.2 259.2,78.7 259.3,65.1 		"/>
		<line class="st2" x1="267.2" y1="66.3" x2="267.1" y2="79.1"/>
		<line class="st2" x1="275.6" y1="67.1" x2="275.6" y2="80"/>
		<polyline class="st3" points="283.4,68.3 283.3,81.2 284,81.8 284.9,81.8 285.5,81.3 285.6,68.6 		"/>
		<line class="st2" x1="292.9" y1="69.6" x2="292.8" y2="82.1"/>
		<line class="st2" x1="300.3" y1="70.8" x2="300.3" y2="79.8"/>
		<polyline class="st3" points="307.1,71.9 307,73.4 307.7,73.9 308.5,73.9 309,73.5 309.1,72 		"/>
		<line class="st2" x1="109.8" y1="44.5" x2="322.9" y2="73.6"/>
		<polygon class="st2" points="728.4,45.7 738.6,45.3 740,78.4 728.9,78.5 		"/>
		<line class="st2" x1="729.5" y1="78.5" x2="729.6" y2="86.7"/>
		<line class="st2" x1="739.6" y1="78.5" x2="739.8" y2="86.2"/>
		<polygon class="st2" points="729.2,86.9 740.6,86.6 742.8,128.8 729.7,129.1 		"/>
		<polyline class="st2" points="735.9,86.2 735.9,82.2 734.3,82.2 734.2,83 729.5,83.1 		"/>
		<polyline class="st2" points="427.1,158.3 427,128.4 438.9,112.2 438.8,111 		"/>
		<line class="st2" x1="427.1" y1="164.5" x2="427.1" y2="161.2"/>
		<polyline class="st2" points="419.5,127.3 426.9,127.6 438.8,111 431.6,110.9 419.5,127.3 418.8,172.4 427.2,172.8 427.2,167.4 		
			"/>
		<line class="st2" x1="419.4" y1="128.1" x2="427" y2="128.4"/>
		<line class="st2" x1="434.2" y1="161.4" x2="434.2" y2="164.5"/>
		<line class="st2" x1="434.1" y1="136.5" x2="434.2" y2="158.2"/>
		<polyline class="st2" points="438.6,112.9 438.6,116.8 430,128.8 430.1,136.4 		"/>
		<polygon class="st2" points="511.7,175.1 436.7,173.5 436.9,157.1 512.2,159 		"/>
		<polygon class="st2" points="423.2,158.2 423.2,161 440.6,161.4 440.7,158.1 		"/>
		<polygon class="st2" points="423.2,164.4 423.2,167.2 440.5,167.7 440.5,164.5 		"/>
		<polyline class="st2" points="391.6,136.1 392.1,168.6 419,169.4 		"/>
		<line class="st2" x1="730.3" y1="138.7" x2="430.1" y2="136.4"/>
		<line class="st2" x1="730.4" y1="130.2" x2="430.1" y2="129.6"/>
		<line class="st2" x1="430.2" y1="130.5" x2="730.4" y2="131.9"/>
		<polyline class="st2" points="419.2,129.6 368.1,129.5 255.2,129.4 		"/>
		<polyline class="st2" points="255.4,176.4 345,167 347,167.3 349.7,166.6 349.2,136.5 		"/>
		<line class="st2" x1="347" y1="167.3" x2="346.8" y2="136.5"/>
		<line class="st2" x1="345" y1="167" x2="344.8" y2="136.4"/>
		<line class="st2" x1="329.5" y1="168.7" x2="329.5" y2="136.9"/>
		<line class="st2" x1="322.5" y1="169.7" x2="322.2" y2="137.3"/>
		<line class="st2" x1="315.5" y1="170" x2="315.6" y2="137.3"/>
		<line class="st2" x1="306.4" y1="171.2" x2="306.4" y2="137.5"/>
		<line class="st2" x1="298.9" y1="171.6" x2="298.7" y2="137.7"/>
		<line class="st2" x1="291.6" y1="172.4" x2="291.3" y2="137.8"/>
		<line class="st2" x1="272.7" y1="174.7" x2="272.1" y2="138.6"/>
		<line class="st2" x1="262.7" y1="175.4" x2="262.4" y2="138.7"/>
		<line class="st2" x1="335.5" y1="168" x2="335.7" y2="136.8"/>
		<line class="st2" x1="339.4" y1="167.7" x2="339.6" y2="136.5"/>
		<line class="st2" x1="284.4" y1="173.4" x2="284.2" y2="138.2"/>
		<polyline class="st3" points="255.5,161.4 349.9,155.4 349.9,157.6 255.3,164.5 		"/>
		<polyline class="st3" points="255.8,169 349.9,160.8 349.9,163.1 255.6,172 		"/>
		<polyline class="st3" points="279,138.3 279.2,178.8 280.8,178.9 280.6,138.1 		"/>
		<line class="st2" x1="349.7" y1="166.6" x2="392" y2="167.8"/>
		<path class="st3" d="M353.9,166.5c0-0.3,0.2-30.5,0.2-30.5"/>
		<line class="st2" x1="356.4" y1="136.1" x2="356.1" y2="166.7"/>
		<line class="st2" x1="364.6" y1="167" x2="365" y2="135.7"/>
		<line class="st2" x1="366.1" y1="135.7" x2="366.1" y2="167"/>
		<line class="st2" x1="374.6" y1="167.5" x2="374.8" y2="135.8"/>
		<line class="st2" x1="382.1" y1="136.1" x2="382.2" y2="167.3"/>
		<line class="st2" x1="383.4" y1="167.6" x2="383.2" y2="135.8"/>
		<polyline class="st3" points="391.7,157.5 356.2,157.1 356.1,155.2 391.7,155.3 		"/>
		<polyline class="st3" points="391.9,163.4 356.1,162.6 356.1,160.5 392,161.2 		"/>
		<polyline class="st2" points="511.7,175.1 513.5,174.4 513.9,158.6 512.2,159 		"/>
		<line class="st2" x1="533" y1="171.5" x2="551.3" y2="172.2"/>
		<polyline class="st2" points="729.5,180.3 551.3,174.3 551.7,159.3 729.5,164 		"/>
		<polyline class="st2" points="730.4,129.4 729.7,182.8 741.8,183 742,129 		"/>
		<polyline class="st2" points="486.7,137.2 486.7,158 533.1,158.8 533,173 513.8,172.4 		"/>
		<line class="st2" x1="501.3" y1="137.4" x2="501.1" y2="156.4"/>
		<line class="st2" x1="503.3" y1="137.4" x2="503.5" y2="156"/>
		<line class="st2" x1="516.8" y1="137.4" x2="516.9" y2="156.4"/>
		<line class="st2" x1="518.9" y1="137.4" x2="518.9" y2="156.3"/>
		<polyline class="st2" points="488.3,137.2 488.3,155.9 532.8,156.8 533.1,137.9 		"/>
		<polyline class="st2" points="537.3,137.8 537.1,169.8 549.5,170.2 549.9,137.5 		"/>
		<polyline class="st2" points="563.1,138 563,157.6 576.4,157.9 640.6,159.7 640.7,138.3 		"/>
		<path class="st2" d="M577.2,138"/>
		<line class="st2" x1="589.5" y1="137.5" x2="589.6" y2="158.2"/>
		<line class="st2" x1="591.2" y1="158.6" x2="591.1" y2="137.3"/>
		<line class="st2" x1="608.4" y1="137.7" x2="608.5" y2="158.4"/>
		<line class="st2" x1="610.1" y1="158.9" x2="610" y2="137.6"/>
		<polyline class="st2" points="644.6,138.4 644.7,159.5 727.6,161.8 728,138.7 		"/>
		<line class="st2" x1="673.7" y1="138.5" x2="673.4" y2="160.2"/>
		<line class="st2" x1="676.3" y1="138.7" x2="676.2" y2="160.1"/>
		<line class="st2" x1="694.2" y1="138.7" x2="694.2" y2="160.4"/>
		<line class="st2" x1="696.8" y1="139.1" x2="696.7" y2="160.4"/>
		<polyline class="st3" points="638.1,138.4 638.1,180.5 639.9,180.5 640,138.1 		"/>
	</g>
</g>
</svg>
