<?xml version="1.0" encoding="utf-8"?>
<!-- Generator: Adobe Illustrator 27.5.0, SVG Export Plug-In . SVG Version: 6.00 Build 0)  -->
<svg version="1.1" id="Lag_1" xmlns="http://www.w3.org/2000/svg" xmlns:xlink="http://www.w3.org/1999/xlink" x="0px" y="0px"
	 viewBox="0 0 16 16" style="enable-background:new 0 0 16 16;" xml:space="preserve">
<style type="text/css">
	.st0{clip-path:url(#SVGID_00000070838119126783178010000008732109827825762228_);fill:#FFC107;}
</style>
<g>
	<defs>
		<rect id="SVGID_1_" width="16" height="16"/>
	</defs>
	<clipPath id="SVGID_00000057109671776055899840000001938223722762772380_">
		<use xlink:href="#SVGID_1_"  style="overflow:visible;"/>
	</clipPath>
	<path style="clip-path:url(#SVGID_00000057109671776055899840000001938223722762772380_);fill:#FFC107;" d="M9,1.6
		C8.7,1,8,0.8,7.4,1.1C7.3,1.2,7.1,1.4,7,1.6L0.2,13.2C-0.3,14,0.3,15,1.1,15h13.7c0.9,0,1.4-1,1-1.8L9,1.6z M8,5c0.5,0,1,0.5,0.9,1
		L8.5,9.5C8.5,9.8,8.3,10,8,10c-0.3,0-0.5-0.2-0.5-0.5L7.1,6C7,5.5,7.4,5.1,8,5C7.9,5,8,5,8,5 M8,11c0.6,0,1,0.4,1,1s-0.4,1-1,1
		c-0.6,0-1-0.4-1-1S7.4,11,8,11"/>
</g>
</svg>
