<?xml version="1.0" encoding="utf-8"?>
<!-- Generator: Adobe Illustrator 27.5.0, SVG Export Plug-In . SVG Version: 6.00 Build 0)  -->
<svg version="1.1" id="Lag_1" xmlns="http://www.w3.org/2000/svg" xmlns:xlink="http://www.w3.org/1999/xlink" x="0px" y="0px"
	 viewBox="0 0 841.89 595.28" style="enable-background:new 0 0 841.89 595.28;" xml:space="preserve">
<style type="text/css">
	.st0{fill:none;stroke:#30556E;stroke-width:0.346;stroke-miterlimit:10;}
	.st1{fill:none;stroke:#30556E;stroke-width:0.346;stroke-linecap:round;stroke-miterlimit:10;}
	.st2{fill:#FFFFFF;stroke:#30556E;stroke-width:0.346;stroke-miterlimit:10;}
</style>
<g>
	<path class="st0" d="M416.18,300.41l-0.76-1.5c-0.2-0.58-0.3-1.21-0.3-1.86c0-3.17,2.51-5.74,5.6-5.74c1.2,0,2.31,0.39,3.23,1.05
		l1.14,1.1c0.77,0.98,1.23,2.23,1.23,3.59c0,1.37-0.47,2.62-1.25,3.61l-0.54,0.59c-1,0.96-2.34,1.54-3.82,1.54
		c-1.28,0-2.38-0.38-3.32-1.12"/>
	<ellipse class="st0" cx="420.72" cy="297.04" rx="3.23" ry="3.31"/>
	<line class="st1" x1="419.54" y1="291.54" x2="421.28" y2="299.32"/>
	<line class="st1" x1="415.48" y1="295.42" x2="426.09" y2="298.75"/>
	<line class="st1" x1="416.72" y1="300.96" x2="423.85" y2="294.16"/>
	<ellipse class="st0" cx="420.72" cy="297.05" rx="1.46" ry="1.5"/>
	<g>
		<path class="st2" d="M425.25,293.83v-0.48l0.17-0.05c0.38-0.15,0.64-0.48,0.64-0.87c0-0.53-0.5-0.96-1.13-0.96
			s-1.13,0.43-1.13,0.96c0,0.39,0.27,0.72,0.65,0.87l0.15,0.05v0.48"/>
		<path class="st2" d="M425.41,294.76h-0.94c-0.36,0-0.66-0.3-0.66-0.66v-0.04c0-0.13,0.11-0.24,0.24-0.24h1.78
			c0.13,0,0.24,0.11,0.24,0.24v0.04C426.06,294.47,425.77,294.76,425.41,294.76z"/>
	</g>
	<g>
		<path class="st2" d="M420.01,292.19v-0.48l0.17-0.05c0.38-0.15,0.64-0.48,0.64-0.87c0-0.53-0.5-0.96-1.13-0.96
			s-1.13,0.43-1.13,0.96c0,0.39,0.27,0.72,0.65,0.87l0.15,0.05v0.48"/>
		<path class="st2" d="M420.17,293.12h-0.94c-0.36,0-0.66-0.3-0.66-0.66v-0.04c0-0.13,0.11-0.24,0.24-0.24h1.78
			c0.13,0,0.24,0.11,0.24,0.24v0.04C420.82,292.83,420.53,293.12,420.17,293.12z"/>
	</g>
	<g>
		<path class="st2" d="M426.33,299.25v-0.48l0.17-0.05c0.38-0.15,0.64-0.48,0.64-0.87c0-0.53-0.5-0.96-1.13-0.96
			s-1.13,0.43-1.13,0.96c0,0.39,0.27,0.72,0.65,0.87l0.15,0.05v0.48"/>
		<path class="st2" d="M426.49,300.19h-0.94c-0.36,0-0.66-0.3-0.66-0.66v-0.04c0-0.13,0.11-0.24,0.24-0.24h1.78
			c0.13,0,0.24,0.11,0.24,0.24v0.04C427.15,299.89,426.85,300.19,426.49,300.19z"/>
	</g>
	<g>
		<path class="st2" d="M415.63,296.15v-0.48l0.17-0.05c0.38-0.15,0.64-0.48,0.64-0.87c0-0.53-0.5-0.96-1.13-0.96
			s-1.13,0.43-1.13,0.96c0,0.39,0.27,0.72,0.65,0.87l0.15,0.05v0.48"/>
		<path class="st2" d="M415.78,297.09h-0.94c-0.36,0-0.66-0.3-0.66-0.66v-0.04c0-0.13,0.11-0.24,0.24-0.24h1.78
			c0.13,0,0.24,0.11,0.24,0.24v0.04C416.44,296.79,416.14,297.09,415.78,297.09z"/>
	</g>
	<g>
		<path class="st2" d="M416.92,301.71v-0.48l0.17-0.05c0.38-0.15,0.64-0.48,0.64-0.87c0-0.53-0.5-0.96-1.13-0.96
			s-1.13,0.43-1.13,0.96c0,0.39,0.27,0.72,0.65,0.87l0.15,0.05v0.48"/>
		<path class="st2" d="M417.08,302.64h-0.94c-0.36,0-0.66-0.3-0.66-0.66v-0.04c0-0.13,0.11-0.24,0.24-0.24h1.78
			c0.13,0,0.24,0.11,0.24,0.24v0.04C417.73,302.35,417.44,302.64,417.08,302.64z"/>
	</g>
	<g>
		<path class="st2" d="M422.65,303.39v-0.48l0.17-0.05c0.38-0.15,0.64-0.48,0.64-0.87c0-0.53-0.5-0.96-1.13-0.96
			s-1.13,0.43-1.13,0.96c0,0.39,0.27,0.72,0.65,0.87l0.15,0.05v0.48"/>
		<path class="st2" d="M422.81,304.32h-0.94c-0.36,0-0.66-0.3-0.66-0.66v-0.04c0-0.13,0.11-0.24,0.24-0.24h1.78
			c0.13,0,0.24,0.11,0.24,0.24v0.04C423.47,304.03,423.17,304.32,422.81,304.32z"/>
	</g>
	<rect x="420.08" y="297.06" class="st2" width="1.28" height="9.11"/>
	<ellipse class="st2" cx="420.72" cy="297.06" rx="0.64" ry="0.66"/>
</g>
</svg>
